<svg width="140" height="52" viewBox="0 0 140 52" fill="none" xmlns="http://www.w3.org/2000/svg">
<path d="M115.658 2.77881H95.3292V23.6083C95.3292 25.8518 97.0895 27.681 99.2639 27.681H119.679V6.93781C119.696 4.65985 117.884 2.77881 115.658 2.77881Z" fill="#066F93"/>
<path d="M119.696 43.178V30.6665H107.651C105.925 30.6665 104.545 32.1506 104.545 33.9972V46.4914H116.607C118.316 46.4914 119.696 44.99 119.696 43.178Z" fill="#ADD363"/>
<path d="M139.094 8.71484H125.84C124.08 8.71484 122.665 10.0609 122.665 11.6831V27.6978H135.832C137.644 27.6978 139.094 26.3518 139.094 24.6433V8.71484Z" fill="#031936"/>
<path d="M132.777 40.279V33.5659C132.777 31.961 131.449 30.6494 129.809 30.6494H122.665V37.3625C122.665 38.9502 123.993 40.2445 125.616 40.2445H132.795V40.279H132.777Z" fill="#00CCCC"/>
<path d="M24.0392 8.37012C24.5569 8.37012 24.9883 8.54269 25.3335 8.88784C25.6786 9.23298 25.8512 9.66441 25.8512 10.2166V22.918C25.8512 23.4357 25.6786 23.8671 25.3335 24.2295C24.9883 24.5747 24.5569 24.7473 24.0392 24.7473C23.5215 24.7473 23.09 24.5747 22.7449 24.2295C22.3997 23.8844 22.2272 23.453 22.2272 22.918V21.4511L22.8829 21.7272C22.8829 21.9861 22.7449 22.2967 22.4688 22.6764C22.1927 23.0388 21.813 23.4185 21.3298 23.7636C20.8466 24.126 20.2771 24.4366 19.6386 24.6782C18.9828 24.9198 18.2753 25.0579 17.5159 25.0579C16.1354 25.0579 14.8928 24.6955 13.7711 23.9879C12.6494 23.2804 11.7693 22.2967 11.1135 21.0542C10.4577 19.8117 10.1298 18.3621 10.1298 16.7399C10.1298 15.1005 10.4577 13.6508 11.1135 12.4083C11.7693 11.1658 12.6321 10.1821 13.7366 9.47458C14.8411 8.76704 16.0491 8.40463 17.3951 8.40463C18.258 8.40463 19.0518 8.54269 19.7594 8.80155C20.4842 9.06041 21.1054 9.3883 21.6404 9.78522C22.1754 10.1821 22.5723 10.5963 22.8657 10.9932C23.1591 11.4074 23.2971 11.7525 23.2971 12.0287L22.2099 12.4256V10.2339C22.2099 9.71618 22.3825 9.28475 22.7276 8.92235C23.09 8.55995 23.5215 8.37012 24.0392 8.37012ZM17.9819 21.7272C18.862 21.7272 19.6386 21.5029 20.2944 21.0715C20.9501 20.64 21.4678 20.036 21.8475 19.2767C22.2099 18.5174 22.3997 17.6718 22.3997 16.7226C22.3997 15.7562 22.2099 14.9106 21.8475 14.134C21.4851 13.3747 20.9674 12.7707 20.2944 12.3393C19.6386 11.9079 18.862 11.6835 17.9819 11.6835C17.119 11.6835 16.3597 11.9079 15.7039 12.3393C15.0481 12.788 14.5304 13.3747 14.1508 14.134C13.7884 14.8934 13.5985 15.7562 13.5985 16.7226C13.5985 17.6718 13.7884 18.5174 14.1508 19.2767C14.5132 20.036 15.0309 20.64 15.7039 21.0715C16.3597 21.5202 17.119 21.7272 17.9819 21.7272Z" fill="#066F93"/>
<path d="M31.8396 24.7296C31.3219 24.7296 30.8905 24.5571 30.5453 24.2119C30.2002 23.8668 30.0276 23.4353 30.0276 22.9004V4.3488C30.0276 3.83108 30.2002 3.39965 30.5453 3.03725C30.8905 2.6921 31.3219 2.51953 31.8396 2.51953C32.3573 2.51953 32.7888 2.6921 33.1339 3.03725C33.4791 3.38239 33.6516 3.83108 33.6516 4.3488V22.9004C33.6516 23.4181 33.4791 23.8495 33.1339 24.2119C32.7888 24.5571 32.3573 24.7296 31.8396 24.7296ZM41.3829 8.68038C41.8488 8.68038 42.2458 8.87021 42.5909 9.24987C42.9361 9.62953 43.1086 9.99193 43.1086 10.3543C43.1086 10.8375 42.867 11.2862 42.3838 11.7004L33.3583 20.0184L33.203 15.8767L40.0713 9.24987C40.4338 8.87021 40.8824 8.68038 41.3829 8.68038ZM41.8316 24.6951C41.3139 24.6951 40.8652 24.488 40.5028 24.0911L34.9459 18.2064L37.6726 15.6868L43.0741 21.5716C43.4538 21.9685 43.6436 22.4172 43.6436 22.9176C43.6436 23.4353 43.4365 23.8668 43.0223 24.1947C42.6427 24.5398 42.2285 24.6951 41.8316 24.6951Z" fill="#066F93"/>
<path d="M54.3776 25.0406C52.6691 25.0406 51.2022 24.6782 49.9425 23.9707C48.6999 23.2631 47.7335 22.2967 47.0605 21.0715C46.3875 19.8462 46.0596 18.4656 46.0596 16.9297C46.0596 15.135 46.422 13.5991 47.1468 12.322C47.8716 11.045 48.838 10.0786 50.0115 9.3883C51.185 8.71526 52.4448 8.37012 53.7563 8.37012C54.7745 8.37012 55.7409 8.57721 56.6555 9.00864C57.5702 9.42281 58.364 10.0096 59.0715 10.7344C59.7791 11.4592 60.3313 12.3048 60.7455 13.2712C61.1597 14.2376 61.3668 15.2558 61.3668 16.3257C61.3495 16.8089 61.1597 17.1886 60.7973 17.4992C60.4349 17.7926 60.0207 17.9479 59.5375 17.9479H48.0787L47.1813 14.9451H58.1914L57.5357 15.5491V14.7381C57.5011 14.1513 57.2941 13.6336 56.9144 13.1849C56.552 12.719 56.086 12.3565 55.5338 12.0977C54.9816 11.8216 54.3948 11.7008 53.7736 11.7008C53.1696 11.7008 52.6173 11.7871 52.0996 11.9424C51.5819 12.0977 51.1332 12.3738 50.7535 12.7535C50.3739 13.1331 50.0805 13.6508 49.8562 14.2894C49.6318 14.9279 49.5283 15.739 49.5283 16.7226C49.5283 17.8098 49.7526 18.7245 50.2013 19.4665C50.65 20.2086 51.2368 20.7954 51.9443 21.175C52.6518 21.5719 53.4112 21.7618 54.205 21.7618C54.9471 21.7618 55.5338 21.71 55.9825 21.5892C56.4139 21.4684 56.7763 21.3303 57.0525 21.1578C57.3286 20.9852 57.5702 20.8471 57.7945 20.7263C58.1569 20.5537 58.5021 20.4502 58.8127 20.4502C59.2441 20.4502 59.6238 20.6055 59.8999 20.8989C60.1933 21.1923 60.3313 21.5547 60.3313 21.9516C60.3313 22.4866 60.0552 22.987 59.4857 23.4185C58.968 23.8671 58.2432 24.2468 57.2941 24.5747C56.3449 24.8681 55.3785 25.0406 54.3776 25.0406Z" fill="#066F93"/>
<path d="M77.6577 8.37012C78.1754 8.37012 78.6069 8.54269 78.952 8.88784C79.2971 9.23298 79.4697 9.66441 79.4697 10.2166V22.918C79.4697 23.4357 79.2971 23.8671 78.952 24.2295C78.6069 24.5747 78.1754 24.7473 77.6577 24.7473C77.14 24.7473 76.7086 24.5747 76.3634 24.2295C76.0183 23.8844 75.8457 23.453 75.8457 22.918V21.4511L76.5015 21.7272C76.5015 21.9861 76.3634 22.2967 76.0873 22.6764C75.8112 23.0388 75.4315 23.4185 74.9483 23.7636C74.4651 24.126 73.8956 24.4366 73.2571 24.6782C72.6013 24.9198 71.8938 25.0579 71.1345 25.0579C69.7539 25.0579 68.5114 24.6955 67.3896 23.9879C66.2679 23.2804 65.3878 22.2967 64.732 21.0542C64.0762 19.8117 63.7484 18.3621 63.7484 16.7399C63.7484 15.1005 64.0762 13.6508 64.732 12.4083C65.3878 11.1658 66.2507 10.1821 67.3551 9.47458C68.4596 8.76704 69.6676 8.40463 71.0137 8.40463C71.8765 8.40463 72.6704 8.54269 73.3779 8.80155C74.1027 9.06041 74.724 9.3883 75.259 9.78522C75.7939 10.1821 76.1908 10.5963 76.4842 10.9932C76.7776 11.4074 76.9156 11.7525 76.9156 12.0287L75.8284 12.4256V10.2339C75.8284 9.71618 76.001 9.28475 76.3462 8.92235C76.7086 8.55995 77.14 8.37012 77.6577 8.37012ZM71.6004 21.7272C72.4805 21.7272 73.2571 21.5029 73.9129 21.0715C74.5687 20.64 75.0864 20.036 75.466 19.2767C75.8284 18.5174 76.0183 17.6718 76.0183 16.7226C76.0183 15.7562 75.8284 14.9106 75.466 14.134C75.1036 13.3747 74.5859 12.7707 73.9129 12.3393C73.2571 11.9079 72.4805 11.6835 71.6004 11.6835C70.7375 11.6835 69.9782 11.9079 69.3225 12.3393C68.6667 12.788 68.149 13.3747 67.7693 14.134C67.4069 14.8934 67.2171 15.7562 67.2171 16.7226C67.2171 17.6718 67.4069 18.5174 67.7693 19.2767C68.1317 20.036 68.6494 20.64 69.3225 21.0715C69.9782 21.5202 70.7375 21.7272 71.6004 21.7272Z" fill="#066F93"/>
<path d="M52.1859 5.36701C53.4284 5.36701 54.6364 4.90106 55.5683 4.05546L56.8626 2.86471C57.3113 2.46779 57.5529 2.03636 57.5529 1.58767C57.5529 1.24253 57.3976 0.897379 57.0697 0.534976C56.7418 0.172574 56.3621 0 55.9307 0C55.4475 0 55.0333 0.172574 54.6709 0.534976L49.511 5.22895L52.1859 5.36701Z" fill="#066F93"/>
<path d="M6.12633 46.733C4.93558 46.733 3.88288 46.4741 2.95099 45.9737C2.03636 45.4559 1.31155 44.7484 0.793834 43.8165C0.276116 42.8846 0 41.7974 0 40.5376C0 39.1915 0.258859 38.0526 0.776577 37.1207C1.29429 36.1888 1.96733 35.464 2.77842 34.9635C3.60677 34.4631 4.46963 34.2042 5.40152 34.2042C6.07456 34.2042 6.73033 34.3077 7.36885 34.5321C8.00737 34.7392 8.57686 35.0843 9.07732 35.533C9.57778 35.9817 9.99196 36.5512 10.3026 37.2242C10.6132 37.8973 10.7858 38.7083 10.8203 39.6575C10.8203 39.7783 10.7685 39.8991 10.6822 40.0026C10.5787 40.1062 10.4752 40.158 10.3544 40.158H0.586747L0.448689 39.2433H10.0782L9.83664 39.4504V39.019C9.75035 38.1734 9.4915 37.4658 9.04281 36.8963C8.59412 36.3268 8.04189 35.8954 7.40337 35.602C6.76485 35.3087 6.10907 35.1534 5.41878 35.1534C4.93558 35.1534 4.43512 35.2569 3.9174 35.4812C3.39968 35.6883 2.89922 36.0162 2.46779 36.4649C2.0191 36.8963 1.6567 37.4486 1.38058 38.1216C1.10447 38.7946 0.966407 39.5712 0.966407 40.4686C0.966407 41.435 1.15624 42.3324 1.55315 43.1435C1.95007 43.9546 2.51956 44.6103 3.29614 45.1108C4.07271 45.6113 5.02186 45.8529 6.14359 45.8529C6.67856 45.8529 7.19628 45.7666 7.67948 45.5767C8.16269 45.3869 8.59412 45.1453 8.97378 44.8519C9.35344 44.5413 9.66407 44.2307 9.90567 43.8683C10.0265 43.7302 10.1645 43.6612 10.3198 43.6612C10.4234 43.6612 10.5269 43.713 10.6132 43.7992C10.6995 43.8855 10.734 43.9891 10.734 44.0926C10.734 44.1962 10.6995 44.2997 10.6305 44.386C10.13 45.0245 9.50875 45.5767 8.73218 46.0599C7.92108 46.4914 7.07548 46.733 6.12633 46.733ZM5.15992 33.4449C5.07364 33.4449 5.02186 33.4104 4.97009 33.3413C4.91832 33.2723 4.90106 33.2205 4.90106 33.1515C4.90106 33.0652 4.93558 32.9617 5.02186 32.8409L6.50599 30.6147C6.55776 30.5284 6.62679 30.4594 6.73033 30.3558C6.83388 30.2695 6.97194 30.2178 7.12725 30.2178C7.29982 30.2178 7.45514 30.2695 7.57594 30.3558C7.69674 30.4594 7.74851 30.5974 7.74851 30.8045C7.74851 30.9081 7.73125 30.9771 7.69674 31.0289C7.66223 31.0806 7.62771 31.1497 7.57594 31.2014L5.78118 33.0825C5.6949 33.1688 5.60861 33.2378 5.50507 33.3241C5.40152 33.3931 5.28072 33.4449 5.15992 33.4449Z" fill="#066F93"/>
<path d="M19.4663 34.187C20.4672 34.187 21.2783 34.3941 21.9168 34.791C22.5381 35.1879 23.0041 35.7229 23.2974 36.4132C23.5908 37.1035 23.7461 37.8628 23.7461 38.7084V46.0255C23.7461 46.1463 23.6943 46.2671 23.6081 46.3534C23.5045 46.4569 23.401 46.4914 23.2802 46.4914C23.1421 46.4914 23.0213 46.4397 22.935 46.3534C22.8487 46.2498 22.797 46.1463 22.797 46.0255V38.812C22.797 38.1217 22.6762 37.5004 22.4518 36.9482C22.2275 36.3959 21.8478 35.9473 21.3474 35.6021C20.8469 35.2742 20.1911 35.1016 19.38 35.1016C18.6725 35.1016 17.9994 35.2742 17.3264 35.6021C16.6534 35.93 16.1011 36.3787 15.6697 36.9482C15.2383 37.5004 15.0139 38.1217 15.0139 38.812V46.0255C15.0139 46.1463 14.9622 46.2671 14.8759 46.3534C14.7896 46.4397 14.6688 46.4914 14.548 46.4914C14.4099 46.4914 14.2891 46.4397 14.2028 46.3534C14.1166 46.2498 14.0648 46.1463 14.0648 46.0255V35.0499C14.0648 34.9291 14.1166 34.8083 14.2028 34.722C14.2891 34.6357 14.4099 34.5839 14.5307 34.5839C14.6688 34.5839 14.7896 34.6357 14.8759 34.722C14.9622 34.8255 15.0139 34.9291 15.0139 35.0499V37.3969L14.4099 38.5358C14.4099 37.9664 14.5652 37.4141 14.8586 36.8791C15.1693 36.3614 15.5662 35.8955 16.0494 35.4813C16.5498 35.0671 17.0848 34.7565 17.6888 34.5322C18.2928 34.2906 18.8796 34.187 19.4663 34.187Z" fill="#066F93"/>
<path d="M33.0995 46.7329C31.9088 46.7329 30.8561 46.474 29.9242 45.9736C29.0096 45.4558 28.2848 44.7483 27.767 43.8164C27.2493 42.8845 26.9732 41.7973 26.9732 40.5375C26.9732 39.1914 27.2321 38.0525 27.7498 37.1206C28.2675 36.1887 28.9405 35.4639 29.7516 34.9634C30.58 34.463 31.4428 34.2041 32.3747 34.2041C33.0478 34.2041 33.7035 34.3076 34.3421 34.532C34.9806 34.7391 35.5501 35.0842 36.0505 35.5329C36.551 35.9816 36.9652 36.5511 37.2758 37.2241C37.5864 37.8972 37.759 38.7082 37.7935 39.6574C37.7935 39.7782 37.7417 39.899 37.6555 40.0025C37.5519 40.1061 37.4484 40.1579 37.3276 40.1579H27.5772L27.4392 39.2432H37.0687L36.8271 39.4503V39.0189C36.7408 38.1733 36.482 37.4657 36.0333 36.8962C35.5846 36.3267 35.0323 35.8953 34.3938 35.6019C33.7553 35.3086 33.0995 35.1533 32.4092 35.1533C31.926 35.1533 31.4256 35.2568 30.9079 35.4811C30.3901 35.6882 29.8897 36.0161 29.4583 36.4648C29.0096 36.8962 28.6472 37.4485 28.371 38.1215C28.0949 38.7945 27.9569 39.5711 27.9569 40.4685C27.9569 41.4349 28.1467 42.3323 28.5436 43.1434C28.9405 43.9545 29.51 44.6102 30.2866 45.1107C31.0632 45.6112 32.0123 45.8528 33.134 45.8528C33.669 45.8528 34.1867 45.7665 34.6699 45.5766C35.1531 45.3868 35.5846 45.1452 35.9642 44.8518C36.3439 44.5412 36.6545 44.2306 36.8961 43.8682C37.0169 43.7301 37.155 43.6611 37.3103 43.6611C37.4138 43.6611 37.5174 43.7129 37.6037 43.7991C37.69 43.8854 37.7245 43.989 37.7245 44.0925C37.7245 44.1961 37.69 44.2996 37.6209 44.3859C37.1205 45.0244 36.4992 45.5766 35.7226 46.0598C34.8943 46.4913 34.0314 46.7329 33.0995 46.7329Z" fill="#066F93"/>
<path d="M41.4864 46.4914C41.3483 46.4914 41.2275 46.4397 41.1413 46.3534C41.055 46.2498 41.0032 46.1463 41.0032 46.0255V35.0499C41.0032 34.9291 41.055 34.8083 41.1413 34.722C41.2275 34.6357 41.3483 34.5839 41.4691 34.5839C41.6072 34.5839 41.728 34.6357 41.8143 34.722C41.9006 34.8255 41.9524 34.9291 41.9524 35.0499V39.0881L41.5382 39.7093C41.5382 39.0881 41.6417 38.4668 41.8661 37.8283C42.0732 37.1898 42.401 36.603 42.8152 36.0508C43.2294 35.4986 43.7299 35.0499 44.3339 34.7047C44.9379 34.3596 45.6281 34.187 46.4047 34.187C46.6291 34.187 46.8707 34.2215 47.1295 34.2906C47.3884 34.3596 47.5092 34.4976 47.5092 34.7392C47.5092 34.8773 47.4747 34.9981 47.3884 35.1016C47.3021 35.2052 47.1986 35.2397 47.0778 35.2397C46.9742 35.2397 46.8707 35.2052 46.7326 35.1362C46.5946 35.0671 46.4047 35.0326 46.1459 35.0326C45.6281 35.0326 45.1277 35.1879 44.6445 35.4813C44.144 35.7919 43.6953 36.1889 43.2984 36.6893C42.9015 37.1898 42.5736 37.742 42.332 38.3288C42.0904 38.9155 41.9696 39.485 41.9696 40.0545V46.0255C41.9696 46.1463 41.9178 46.2671 41.8316 46.3534C41.7453 46.4397 41.6072 46.4914 41.4864 46.4914Z" fill="#066F93"/>
<path d="M54.8436 34.187C55.5684 34.187 56.2242 34.3078 56.8455 34.5667C57.4667 34.8255 58.019 35.1534 58.4849 35.5676C58.9509 35.9818 59.3133 36.4305 59.5894 36.9137C59.8482 37.3969 59.9863 37.8628 59.9863 38.3288L59.6757 37.4486V35.0671C59.6757 34.9463 59.7274 34.8255 59.8137 34.7392C59.9 34.6357 60.0208 34.6012 60.1589 34.6012C60.2969 34.6012 60.4177 34.653 60.504 34.7392C60.5903 34.8428 60.6421 34.9463 60.6421 35.0671V45.3525C60.6421 46.5777 60.3832 47.6304 59.8828 48.5278C59.3823 49.4252 58.692 50.0982 57.8119 50.5814C56.9318 51.0646 55.9136 51.3062 54.7574 51.3062C54.1188 51.3062 53.4803 51.2199 52.8418 51.0474C52.2033 50.8748 51.651 50.6677 51.2369 50.4088C50.8054 50.15 50.5984 49.8911 50.5984 49.5977C50.5984 49.4769 50.6329 49.3734 50.7019 49.2871C50.7709 49.2008 50.8745 49.1663 50.9953 49.1663C51.1506 49.1663 51.3059 49.2526 51.444 49.4252C51.582 49.5977 51.8236 49.7531 52.1688 49.9084C52.3068 49.9602 52.5139 50.0119 52.7555 50.0982C52.9971 50.1845 53.3077 50.2535 53.6529 50.3053C53.998 50.3571 54.395 50.3916 54.8264 50.3916C56.345 50.3916 57.5358 49.9256 58.3986 48.9937C59.2615 48.0619 59.6929 46.8538 59.6929 45.3525V42.9882L59.9345 43.0055C59.7447 43.6958 59.4686 44.2653 59.1062 44.7485C58.7438 45.2317 58.3296 45.6113 57.8464 45.9047C57.3805 46.1981 56.88 46.4224 56.3623 46.5432C55.8446 46.6813 55.3441 46.7503 54.8609 46.7503C53.7564 46.7503 52.7728 46.4742 51.9099 45.922C51.047 45.3697 50.3567 44.6277 49.839 43.6785C49.3213 42.7294 49.0797 41.6594 49.0797 40.4687C49.0797 39.2779 49.3386 38.208 49.839 37.2588C50.3567 36.3097 51.0298 35.5676 51.9099 35.0326C52.7555 34.4459 53.7392 34.187 54.8436 34.187ZM54.8954 35.0844C53.9635 35.0844 53.1352 35.3087 52.3931 35.7747C51.651 36.2406 51.0643 36.8619 50.6501 37.673C50.2359 38.4841 50.0116 39.3987 50.0116 40.4341C50.0116 41.4523 50.2187 42.367 50.6501 43.178C51.0643 43.9891 51.651 44.6277 52.3931 45.0936C53.1352 45.5596 53.9635 45.8012 54.8954 45.8012C55.8273 45.8012 56.6557 45.5768 57.3805 45.1281C58.1053 44.6794 58.692 44.0409 59.1234 43.2471C59.5549 42.436 59.762 41.5041 59.762 40.4341C59.762 39.3642 59.5549 38.4323 59.1234 37.6212C58.692 36.8101 58.1053 36.1889 57.3805 35.7402C56.6384 35.3087 55.81 35.0844 54.8954 35.0844Z" fill="#066F93"/>
<path d="M65.077 32.5478C64.8182 32.5478 64.6111 32.4788 64.473 32.3407C64.3177 32.2027 64.2487 32.0128 64.2487 31.7885V31.5987C64.2487 31.3743 64.3349 31.1845 64.4903 31.0464C64.6456 30.9084 64.8527 30.8394 65.1115 30.8394C65.3359 30.8394 65.5257 30.9084 65.681 31.0464C65.8363 31.1845 65.9054 31.3743 65.9054 31.5987V31.7885C65.9054 32.0128 65.8363 32.2027 65.681 32.3407C65.5084 32.4788 65.3014 32.5478 65.077 32.5478ZM65.543 46.0085C65.543 46.1293 65.4912 46.2501 65.4049 46.3364C65.3186 46.4227 65.1978 46.4744 65.077 46.4744C64.939 46.4744 64.8182 46.4227 64.7319 46.3364C64.6456 46.2328 64.5938 46.1293 64.5938 46.0085V34.6532C64.5938 34.5324 64.6456 34.4116 64.7319 34.3253C64.8182 34.239 64.939 34.1873 65.0598 34.1873C65.1978 34.1873 65.3186 34.239 65.4049 34.3253C65.4912 34.4289 65.543 34.5324 65.543 34.6532V46.0085Z" fill="#066F93"/>
<path d="M74.8965 46.7329C73.7058 46.7329 72.6531 46.474 71.7212 45.9736C70.8066 45.4558 70.0818 44.7483 69.564 43.8164C69.0463 42.8845 68.7702 41.7973 68.7702 40.5375C68.7702 39.1914 69.0291 38.0525 69.5468 37.1206C70.0645 36.1887 70.7375 35.4639 71.5486 34.9634C72.377 34.463 73.2398 34.2041 74.1717 34.2041C74.8448 34.2041 75.5005 34.3076 76.1391 34.532C76.7776 34.7391 77.3471 35.0842 77.8475 35.5329C78.348 35.9816 78.7622 36.5511 79.0728 37.2241C79.3834 37.8972 79.556 38.7082 79.5905 39.6574C79.5905 39.7782 79.5387 39.899 79.4524 40.0025C79.3489 40.1061 79.2454 40.1579 79.1246 40.1579H69.3742L69.2362 39.2432H78.8657L78.6241 39.4503V39.0189C78.5378 38.1733 78.279 37.4657 77.8303 36.8962C77.3816 36.3267 76.8293 35.8953 76.1908 35.6019C75.5523 35.3086 74.8965 35.1533 74.2062 35.1533C73.723 35.1533 73.2226 35.2568 72.7049 35.4811C72.1871 35.6882 71.6867 36.0161 71.2552 36.4648C70.8066 36.8962 70.4442 37.4485 70.168 38.1215C69.8919 38.7945 69.7539 39.5711 69.7539 40.4685C69.7539 41.4349 69.9437 42.3323 70.3406 43.1434C70.7375 43.9545 71.307 44.6102 72.0836 45.1107C72.8602 45.6112 73.8093 45.8528 74.931 45.8528C75.466 45.8528 75.9837 45.7665 76.4669 45.5766C76.9501 45.3868 77.3816 45.1452 77.7612 44.8518C78.1409 44.5412 78.4515 44.2306 78.6931 43.8682C78.8139 43.7301 78.952 43.6611 79.1073 43.6611C79.2108 43.6611 79.3144 43.7129 79.4007 43.7991C79.487 43.8854 79.5215 43.989 79.5215 44.0925C79.5215 44.1961 79.487 44.2996 79.4179 44.3859C78.9175 45.0244 78.2962 45.5766 77.5196 46.0598C76.6913 46.4913 75.8284 46.7329 74.8965 46.7329Z" fill="#066F93"/>
<path d="M82.1274 44.5757C82.0238 44.3859 81.972 44.2306 81.972 44.1098C81.972 43.989 82.0411 43.8854 82.1446 43.8164C82.2309 43.7301 82.3344 43.6956 82.4725 43.7129C82.6106 43.7129 82.7314 43.7819 82.8177 43.8854C83.2318 44.4722 83.7668 44.9554 84.4053 45.3178C85.0438 45.6802 85.8032 45.87 86.6833 45.87C87.201 45.87 87.7187 45.7837 88.2019 45.6112C88.6851 45.4386 89.082 45.1797 89.3927 44.8173C89.7033 44.4722 89.8586 44.0407 89.8586 43.523C89.8586 42.988 89.7033 42.5394 89.4099 42.2287C89.0993 41.9008 88.7196 41.642 88.2364 41.4522C87.7532 41.2623 87.2528 41.107 86.735 40.9689C86.1828 40.8309 85.6478 40.6583 85.1474 40.4857C84.6469 40.2959 84.1982 40.0716 83.8186 39.7955C83.4389 39.5193 83.1283 39.1914 82.9039 38.8118C82.6796 38.4321 82.5761 37.9834 82.5761 37.4485C82.5761 36.8272 82.7486 36.275 83.0765 35.7745C83.4044 35.2741 83.8876 34.8944 84.4916 34.6183C85.0956 34.3422 85.8032 34.2041 86.597 34.2041C86.9767 34.2041 87.3908 34.2559 87.8223 34.3422C88.2537 34.4284 88.6851 34.601 89.1166 34.8254C89.548 35.0497 89.9449 35.3776 90.3073 35.7918C90.4281 35.8953 90.4971 35.9989 90.4799 36.1369C90.4799 36.275 90.4108 36.3958 90.3073 36.4993C90.2038 36.5683 90.1002 36.6029 89.9967 36.6029C89.8931 36.6029 89.7896 36.5511 89.7033 36.4648C89.2891 35.9989 88.8059 35.6537 88.2537 35.4294C87.7015 35.205 87.1147 35.1015 86.4935 35.1015C85.9757 35.1015 85.4753 35.1878 85.0266 35.3603C84.5779 35.5329 84.1982 35.7918 83.9221 36.1369C83.6287 36.4821 83.4907 36.9135 83.4907 37.4312C83.5252 37.9317 83.6978 38.3286 84.0084 38.6565C84.319 38.9671 84.7332 39.2432 85.2509 39.4503C85.7686 39.6574 86.3554 39.8472 87.0112 40.0198C87.5289 40.1406 88.0293 40.2959 88.478 40.4685C88.9267 40.6411 89.3236 40.8481 89.6688 41.107C90.0139 41.3659 90.29 41.6765 90.4799 42.0562C90.687 42.4358 90.7733 42.919 90.7733 43.4885C90.7733 44.1615 90.6007 44.731 90.2383 45.2142C89.8759 45.6974 89.3927 46.0771 88.7541 46.336C88.1329 46.5948 87.4081 46.7329 86.597 46.7329C85.7686 46.7329 84.9748 46.5603 84.2155 46.2324C83.4562 45.8873 82.7486 45.335 82.1274 44.5757Z" fill="#066F93"/>
</svg>
