<?xml version="1.0" encoding="UTF-8"?> <svg xmlns="http://www.w3.org/2000/svg" id="Layer_1" version="1.1" viewBox="0 0 225 52"><defs><style> .st0 { fill: #8dd0e1; } .st1 { fill: #ccd02b; } .st2 { fill: #ce8db9; } .st3 { fill: #52abb8; } .st4 { fill: #24429e; } .st5 { fill: #f5ae2e; } </style></defs><path class="st4" d="M121.8,17.4c0-3.4.9-6.1,2.8-8.1,2-2,4.5-3,7.7-3s5.7,1,7.7,3c1.9,2,2.9,4.7,2.9,8.1s-1,6.1-2.9,8.1c-1.9,2-4.5,2.9-7.7,2.9s-5.8-1-7.7-2.9c-1.9-1.9-2.8-4.6-2.8-8.1ZM149,30.3c0,.6-.2,1.1-.6,1.5-.4.4-.9.6-1.5.6h-2.1v-13.7c0-2.9.9-4.8,2.6-5.8,1.7-1,3.6-1.5,5.6-1.5s2.1.2,3.2.6c1.1.4,1.9.9,2.5,1.7,1.3,1.6,1.9,3.6,1.9,6.1s-.6,4.6-1.9,6.2c-1.3,1.5-2.9,2.3-4.8,2.3s-2-.2-2.8-.6c-.8-.4-1.5-1-2-1.9v4.5h0ZM156.1,19.8c0-1.6-.3-2.8-.9-3.7-.6-.9-1.5-1.3-2.7-1.3s-2,.4-2.6,1.3c-.6.8-.9,2-.9,3.7s.3,2.7.9,3.5c.6.8,1.5,1.3,2.7,1.3s2-.4,2.6-1.3c.6-.9.9-2,.9-3.5M210.1,22.5h4.3c0,.8.4,1.4,1,1.8.6.4,1.5.6,2.5.6s1.4-.1,2-.4c.5-.3.8-.7.8-1.2,0-.7-.9-1.3-2.6-1.6-.8-.1-1.3-.2-1.7-.4-2.2-.6-3.7-1.2-4.5-1.9-.8-.7-1.3-1.7-1.3-2.9s.6-2.8,1.8-3.8c1.3-.9,2.9-1.4,4.9-1.4s3.9.4,5.2,1.4c1.2,1,1.9,2.4,2,4h-2.7c-.8,0-1.4-.3-1.8-1-.2-.2-.3-.3-.5-.5-.5-.4-1.2-.6-2.1-.6s-1.5.1-1.9.4c-.4.2-.6.6-.6,1.1s1.1,1.2,3.3,1.6c.2,0,.5.2.7.2.2,0,.4,0,.5,0,2.1.5,3.6,1.1,4.5,1.8.8.7,1.2,1.7,1.2,2.9,0,1.8-.7,3.2-2,4.2-1.3.9-3.1,1.3-5.7,1.3s-4.1-.4-5.3-1.4c-1.2-.9-1.8-2.3-1.8-4.1v-.2ZM208.7,27.9h-2.2c-.6,0-1.2-.2-1.6-.6-.4-.4-.6-.9-.6-1.5v-8.3c0-1-.3-1.7-.9-2.1-.6-.4-1.3-.7-2.1-.7s-1.4.2-2,.7c-.6.4-.9,1.2-.9,2.1v10.4h-4.4v-9.5c0-2.8.7-4.6,2.2-5.5,1.5-.9,3.1-1.5,4.9-1.5,1.8,0,3.5.4,5.1,1.4s2.3,2.8,2.3,5.7v9.5ZM182.5,15.6c-.9.9-1.3,2.3-1.2,4.2,0,1.8.5,3.1,1.1,3.9.2.3.7.6,1.3.8.6.2,1.3.3,1.9,0,.7-.2,1.2-.6,1.7-1.3.5-.7.8-1.9.8-3.5,0-1.5-.2-2.6-.7-3.3-.5-.7-1-1.2-1.7-1.4-.6-.2-1.3-.2-1.9,0-.6.2-1.1.4-1.4.7ZM179.5,26.4c-.9-.7-1.5-1.7-1.9-3-.4-1.2-.6-2.5-.6-3.9s.1-2.2.5-3.3c.3-1.1.8-2,1.5-2.8,1.1-1.2,2.5-1.9,4.2-2.2,1.7-.2,3.3,0,4.7.4,1.6.6,2.8,1.7,3.5,3.2.7,1.3,1.1,2.9,1.1,4.7s-.2,2.4-.4,3.4c-.3.9-.7,1.7-1.2,2.4-1,1.3-2.3,2.2-3.8,2.5-1.4.4-2.8.4-4.2,0-1.4-.3-2.5-.8-3.4-1.5M171.8,6.9h2.3c.6,0,1.1.2,1.5.6.4.4.6.9.6,1.5v1.3h-4.4v-3.3h0ZM171.8,11.6h2.3c.6,0,1.1.2,1.5.6.4.4.6.9.6,1.5v14.2h-4.4V11.6ZM169.9,27.9c-1.4,0-2.9,0-4.5,0-1.6-.1-2.4-1.1-2.4-3V6.8h2.3c.5,0,1,.2,1.5.6.4.4.6.9.6,1.5v2.7h2.6v.9c0,.6-.2,1.1-.6,1.5-.4.4-.9.6-1.5.6h-.5v9c0,.7.4,1.1,1.3,1.1h1.3v3.2h0ZM126.2,17.4c0,2.4.5,4.2,1.6,5.4,1,1.3,2.5,1.9,4.4,1.9s3.4-.6,4.4-1.9c1.1-1.3,1.7-3.1,1.7-5.4s-.6-4.1-1.7-5.4c-1.1-1.3-2.6-1.9-4.4-1.9s-3.4.6-4.4,1.9c-1.1,1.3-1.6,3.1-1.6,5.4ZM107.1,18.1h6.4c0-1.1-.4-1.9-.9-2.4-.5-.6-1.3-.9-2.3-.9s-1.7.3-2.3.9c-.6.6-.9,1.3-.9,2.4ZM114.7,22.8h3.1c-.5,1.7-1.4,3-2.6,3.9-1.3.9-2.9,1.4-4.9,1.4s-4.2-.7-5.6-2.3c-1.4-1.5-2-3.5-2-6.3s.6-4.6,2-6.1c1.3-1.5,3.2-2.2,5.6-2.2s4.5.7,5.9,2.2c1.3,1.5,2,3.6,2,6.3v.7c0,.2,0,.4,0,.4h-10.8c0,1.3.3,2.2.9,2.8.5.6,1.4,1,2.5,1s1.3-.2,1.8-.4c.1,0,.2,0,.3-.2,0,0,.2-.2.4-.4,0-.1.2-.3.5-.5.3-.2.7-.3,1.2-.3M92.1,27.9v-7.9c0-1.6.2-2.9.7-4,.5-1.1,1.1-2,2-2.6.8-.6,1.8-1.1,2.8-1.3,1.1-.3,2.2-.4,3.3-.4h.6v4.3h-1.4c-1.2,0-2.1.3-2.7.9-.6.5-.9,1.5-.9,2.7v8.4h-4.4,0ZM87.3,27.2c-.9.4-1.8.7-2.8.8-1,0-1.9.1-2.6.1-1.5,0-2.8-.4-4-1.2-1.1-.8-1.7-2.1-1.7-3.9s.5-2.9,1.6-3.7c1-.7,2.3-1.2,3.9-1.5.2,0,.5,0,.8,0,.3,0,.6-.1,1-.2,1.9-.2,2.8-.8,2.8-1.6s-.3-1-1-1.2c-.6-.2-1.2-.3-1.8-.3s-1.1,0-1.6.3c-.5.2-.8.5-1,.9h-4.2c.2-1.3.8-2.3,1.8-3.1,1.1-.9,2.8-1.4,4.8-1.4s4.1.4,5.3,1.2c1.2.8,1.8,1.9,1.8,3.4v5.5c0,1.6-.3,2.9-.9,3.8-.6.9-1.3,1.6-2.2,2M86.3,19.7c-.6.3-1.4.5-2.5.8-1,.2-1.5.3-1.5.3-.8.2-1.3.4-1.6.8-.3.4-.5.9-.5,1.3s.2,1.1.6,1.5c.4.3.9.5,1.6.5,1.2,0,2.1-.3,2.8-1,.7-.6,1-1.5,1-2.7v-1.5ZM74.6,20.6c-.2,2.4-1.1,4.3-2.8,5.7-1.7,1.3-4,2-6.8,2s-5.8-1-7.5-2.9c-1.7-1.8-2.6-4.5-2.6-8.1s.9-6.4,2.6-8.2c1.8-1.9,4.4-2.9,7.8-2.9s5,.7,6.6,2c1.6,1.3,2.4,3.1,2.6,5.5h-2.7c-1,0-1.7-.4-2.1-1.3-.3-.5-.7-1-1.1-1.4-.8-.6-1.9-.9-3.3-.9s-3.4.6-4.5,1.8c-1,1.2-1.5,3-1.5,5.4s.5,4,1.5,5.3c1,1.3,2.4,1.9,4.3,1.9s2.5-.3,3.4-1c.8-.6,1.4-1.6,1.7-2.9h4.3Z"></path><path class="st4" d="M57.4,39.2h-.2c-.8,0-1.6.2-2.2.6.1-.7.3-1.2.6-1.4.3-.2.8-.3,1.7-.3h.3l.3-1.4c.4-1.9,1-3.2,1.8-4,1.1-1,2.2-1.5,3.5-1.5s.9,0,1.3.3c.3.2.5.5.5.8s-.4.7-1.1,1.1c-.2-.9-.7-1.3-1.4-1.3-1.3,0-2.2,1.4-2.8,4.1l-.4,1.9h3c1.4,0,2.4-.1,3-.2-.3.6-.6.9-.9,1.1-.4,0-1.3.2-2.7.2h-2.6l-1.5,7.2c-.1.7-.2,1.3-.2,1.8s0,.6.2.9c-.6.2-1,.3-1.3.3-.5,0-.7-.3-.7-.8s0-1.1.3-2l1.5-7.4h0ZM71.6,39.7c0,.1,0,.2,0,.4,0,1.6-.6,3-1.7,4.2-1.1,1.2-2.4,1.8-3.9,1.8s-2.1-.4-2.8-1.1c-.7-.7-1.1-1.6-1.1-2.8s.5-2.5,1.4-3.4c.9-.9,2-1.4,3.3-1.4s.4,0,.6,0c-.1-.3-.2-.5-.2-.7,0-.3,0-.5.3-.8,1.4.1,2.5.8,3.5,2.1.9.6,1.9.9,3,.9s1.4-.2,2.2-.7l.4.7c-.9.6-1.8.9-2.8.9s-1.4-.1-2.2-.4M69.7,39c-.5-.1-.9-.4-1.3-.7-.3,0-.5,0-.7,0-1,0-1.8.4-2.6,1.3-.7.9-1.1,1.8-1.1,2.9s.2,1.4.7,1.9c.4.5,1,.8,1.7.8s1.8-.5,2.5-1.4c.7-.9,1-2.1,1-3.4s0-.9-.2-1.3M76.3,45.8c-.4.2-.7.3-.9.3-.6,0-.9-.2-.9-.7s0-.9.3-1.9l.4-2.1c.2-1.2.4-2.2.4-2.8s0-.6-.3-.8c.6-.2,1.1-.3,1.5-.3s.6.3.6.7-.2,1.1-.4,2.4l-.5,2.5c1.1-2.1,2.2-3.7,3.2-4.8,1.1-1.1,2.1-1.7,3-1.7s.6,0,.8.3c.2.2.3.4.3.7,0,.4-.4.9-1.3,1.6-.2-.5-.5-.7-.9-.7-.7,0-1.6.7-2.8,2.3-.7.9-1.3,1.9-1.8,2.9-.5,1-.8,1.7-.8,2.1h0c0,.1,0,.1,0,.1Z"></path><path class="st4" d="M133,45.3h4.2c0,.8.3,1.4.9,1.8.6.4,1.4.6,2.5.6s1.4-.1,1.9-.4c.5-.3.7-.7.7-1.2,0-.7-.8-1.3-2.6-1.6-.7-.1-1.3-.3-1.7-.4-2.2-.5-3.6-1.2-4.3-1.9-.8-.7-1.2-1.7-1.2-2.9s.6-2.9,1.8-3.9c1.2-.9,2.8-1.4,4.8-1.4s3.8.5,5.1,1.4c1.2,1,1.8,2.3,1.9,4h-2.7c-.8,0-1.4-.4-1.8-1.1-.2-.2-.3-.3-.5-.5-.5-.4-1.2-.6-2-.6s-1.5.1-1.8.4c-.4.3-.5.6-.5,1.1s1.1,1.2,3.2,1.7c.3,0,.5.1.6.2.2,0,.4,0,.5,0,2.1.5,3.6,1.2,4.4,1.8.8.7,1.2,1.7,1.2,2.9,0,1.8-.6,3.2-2,4.2-1.2.9-3,1.4-5.5,1.4s-4.1-.5-5.2-1.4c-1.2-.9-1.8-2.3-1.8-4.1v-.2h0Z"></path><path class="st4" d="M119.2,42.5c0,1.6.3,2.9,1,3.7.6.9,1.5,1.3,2.7,1.3s2-.4,2.6-1.3c.6-.8.9-2.1.9-3.7s-.3-2.7-.9-3.5c-.7-.8-1.5-1.2-2.7-1.2s-1.9.4-2.5,1.3c-.6.8-1,2-1,3.5ZM126.3,29.5h2.1c.6,0,1.1.2,1.5.7.4.5.6.9.6,1.5v12c0,2.9-.8,4.9-2.5,5.9-1.7,1-3.6,1.6-5.6,1.6s-2.1-.2-3.2-.5c-1.1-.4-1.9-.9-2.5-1.7-1.2-1.5-1.8-3.6-1.8-6.2s.6-4.6,1.8-6.2c1.3-1.6,2.9-2.4,4.8-2.4s2,.2,2.8.6c.8.5,1.5,1.1,2,1.9v-7Z"></path><path class="st4" d="M108.2,29.5h2.4c.6,0,1.1.2,1.6.6.4.4.7.9.7,1.5v1.3h-4.6v-3.4h0ZM108.2,34.3h2.4c.6,0,1.1.2,1.6.6.4.4.7.9.7,1.5v14.1h-4.6v-16.2h0Z"></path><path class="st4" d="M86.8,50.5v-18.8c0-.6.2-1.1.7-1.6.4-.4,1-.6,1.6-.6h2.2v8.6l8.3-8.6h5.6l-8.6,8.5,9.3,12.5h-5.4l-5.4-7.4c-1-1.2-1.8-1.7-2.6-1.5-.8.3-1.2.8-1.2,1.5v7.4h-4.5Z"></path><path class="st1" d="M18.5,32.9c-10.4.6-17.2,8.2-18.5,18.2,10.2-.5,17.9-8.6,18.5-18.2Z"></path><path class="st2" d="M21.4,32.9c.7,10.4,8.5,17,18.5,18.2-.7-10.1-8.9-17.7-18.5-18.2Z"></path><path class="st5" d="M23.1,27.2c15.6-1,25.5-12.5,27.2-27.2-15.1,1-26.5,13.1-27.2,27.2Z"></path><path class="st3" d="M17.9,27.8C17.3,17.8,9.7,11.3,0,10.2c.6,9.8,8.6,17.1,17.9,17.6Z"></path><path class="st0" d="M20.2,0c2.9,0,5.2,2.3,5.2,5.1s-2.3,5.1-5.2,5.1-5.2-2.3-5.2-5.1S17.4,0,20.2,0Z"></path></svg> 