<svg width="381" height="86" viewBox="0 0 381 86" fill="none" xmlns="http://www.w3.org/2000/svg">
<path d="M315.313 80.6754C310.374 80.6754 306.388 76.717 306.388 71.8127V14.3976C306.388 9.49336 310.374 5.53491 315.313 5.53491C320.252 5.53491 324.238 9.49336 324.238 14.3976V71.8127C324.203 76.717 320.216 80.6754 315.313 80.6754Z" fill="#00506D"/>
<path d="M315.313 80.6754C312.244 80.6754 309.245 79.099 307.587 76.2616C305.117 72.0229 306.599 66.6282 310.832 64.176L360.892 35.486C365.16 33.0339 370.593 34.5052 373.062 38.7088C375.532 42.9125 374.05 48.3422 369.817 50.7944L319.758 79.4844C318.347 80.2901 316.83 80.6754 315.313 80.6754Z" fill="#B8D054"/>
<path d="M365.337 51.9504C363.82 51.9504 362.303 51.5651 360.892 50.7594L310.832 22.0694C306.564 19.6172 305.118 14.2225 307.587 9.98382C310.056 5.74512 315.489 4.30887 319.758 6.76101L369.817 35.451C374.086 37.9032 375.532 43.2979 373.063 47.5366C371.44 50.374 368.441 51.9504 365.337 51.9504Z" fill="#00B2BA"/>
<path d="M9.9483 12.9614C9.9483 11.3149 11.2536 10.0188 12.9116 10.0188H20.4611C28.9277 10.0188 34.7839 15.7988 34.7839 23.3304V23.4005C34.7839 30.932 28.9277 36.7821 20.4611 36.7821H12.9116C11.2536 36.7821 9.9483 35.486 9.9483 33.8396V12.9614ZM20.4611 31.4575C25.2941 31.4575 28.575 28.1997 28.575 23.4705V23.4005C28.575 18.6713 25.2941 15.3434 20.4611 15.3434H15.875V31.4925H20.4611V31.4575Z" fill="#00B2BA"/>
<path d="M40.0755 33.8396V12.9614C40.0755 11.3149 41.3808 10.0188 43.0388 10.0188H57.9613C59.4077 10.0188 60.6072 11.2098 60.6072 12.6461C60.6072 14.0823 59.4077 15.2384 57.9613 15.2384H45.9669V20.6681H56.2327C57.6791 20.6681 58.8786 21.8591 58.8786 23.2954C58.8786 24.7316 57.6791 25.8876 56.2327 25.8876H45.9669V31.4925H58.173C59.6194 31.4925 60.8188 32.6836 60.8188 34.1198C60.8188 35.5561 59.6194 36.7121 58.173 36.7121H43.0388C41.3808 36.7821 40.0755 35.486 40.0755 33.8396Z" fill="#00B2BA"/>
<path d="M65.8636 12.7162C65.8636 11.0698 67.1689 9.77368 68.8269 9.77368C70.485 9.77368 71.7903 11.0698 71.7903 12.7162V31.4226H82.7616C84.2786 31.4226 85.4428 32.6136 85.4428 34.0849C85.4428 35.5562 84.2433 36.7472 82.7616 36.7472H68.8269C67.1689 36.7472 65.8636 35.4511 65.8636 33.8046V12.7162Z" fill="#00B2BA"/>
<path d="M92.1102 15.4487H86.4305C84.9136 15.4487 83.7141 14.2226 83.7141 12.7513C83.7141 11.245 84.9488 10.054 86.4305 10.054H103.752C105.269 10.054 106.468 11.28 106.468 12.7513C106.468 14.2576 105.234 15.4487 103.752 15.4487H98.0369V34.0499C98.0369 35.6963 96.7316 36.9924 95.0736 36.9924C93.4155 36.9924 92.1102 35.6963 92.1102 34.0499V15.4487Z" fill="#00B2BA"/>
<path d="M106.398 32.9988L115.782 11.9454C116.452 10.5092 117.616 9.59839 119.239 9.59839H119.592C121.214 9.59839 122.379 10.4742 123.014 11.9454L132.397 32.9988C132.574 33.4192 132.715 33.8045 132.715 34.1898C132.715 35.7662 131.48 37.0273 129.893 37.0273C128.517 37.0273 127.6 36.2216 127.035 34.9955L125.236 30.7919H113.383L111.513 35.2057C111.019 36.3617 109.996 37.0273 108.797 37.0273C107.244 37.0273 106.08 35.8012 106.08 34.2599C106.045 33.8395 106.221 33.4192 106.398 32.9988ZM123.084 25.5723L119.345 16.7446L115.605 25.5723H123.084Z" fill="#00B2BA"/>
<path d="M147.743 23.4706V23.4005C147.743 15.7989 153.529 9.56348 161.784 9.56348C165.841 9.56348 168.557 10.6494 170.78 12.2608C171.379 12.7162 171.944 13.557 171.944 14.6079C171.944 16.2193 170.639 17.4804 169.016 17.4804C168.204 17.4804 167.675 17.1651 167.252 16.9199C165.594 15.6938 163.865 14.9932 161.749 14.9932C157.198 14.9932 153.917 18.7415 153.917 23.3305V23.4005C153.917 27.9895 157.127 31.8079 161.749 31.8079C164.253 31.8079 165.911 31.0372 167.605 29.706C168.063 29.3207 168.698 29.0405 169.369 29.0405C170.886 29.0405 172.156 30.2665 172.156 31.7378C172.156 32.6486 171.697 33.3843 171.168 33.8396C168.734 35.9415 165.876 37.2026 161.572 37.2026C153.635 37.2376 147.743 31.1423 147.743 23.4706Z" fill="#00B2BA"/>
<path d="M175.401 23.4706V23.4005C175.401 15.7989 181.434 9.56348 189.759 9.56348C198.085 9.56348 204.047 15.7289 204.047 23.3305V23.4005C204.047 31.0022 198.014 37.2376 189.689 37.2376C181.363 37.2376 175.401 31.0722 175.401 23.4706ZM197.838 23.4706V23.4005C197.838 18.8115 194.451 14.9932 189.689 14.9932C184.926 14.9932 181.61 18.7415 181.61 23.3305V23.4005C181.61 27.9895 184.997 31.8079 189.759 31.8079C194.522 31.8079 197.838 28.0596 197.838 23.4706Z" fill="#00B2BA"/>
<path d="M209.303 12.8213C209.303 11.1749 210.608 9.87877 212.266 9.87877H212.866C214.277 9.87877 215.124 10.5794 215.935 11.5953L227.365 26.5183V12.6812C227.365 11.0698 228.67 9.77368 230.293 9.77368C231.916 9.77368 233.221 11.0698 233.221 12.6812V33.9798C233.221 35.6262 231.916 36.9224 230.258 36.9224H230.082C228.67 36.9224 227.824 36.2217 227.012 35.2059L215.159 19.7574V34.0849C215.159 35.6963 213.854 36.9924 212.231 36.9924C210.608 36.9924 209.303 35.6963 209.303 34.0849V12.8213Z" fill="#00B2BA"/>
<path d="M239.183 33.9446C238.513 33.4892 238.054 32.6485 238.054 31.7377C238.054 30.1964 239.289 29.0404 240.841 29.0404C241.618 29.0404 242.147 29.3206 242.535 29.5658C244.581 31.0721 246.803 31.9829 249.414 31.9829C251.848 31.9829 253.294 31.0371 253.294 29.4607V29.3907C253.294 27.8843 252.377 27.1487 247.862 25.9927C242.429 24.6265 238.936 23.1202 238.936 17.7955V17.7255C238.936 12.8562 242.852 9.66846 248.356 9.66846C251.636 9.66846 254.494 10.5092 256.893 12.0505C257.563 12.4359 258.198 13.2416 258.198 14.3976C258.198 15.9389 256.963 17.0949 255.411 17.0949C254.847 17.0949 254.388 16.9548 253.894 16.6746C251.919 15.5186 250.084 14.888 248.25 14.888C245.992 14.888 244.793 15.9039 244.793 17.2351V17.3051C244.793 19.0566 245.957 19.6522 250.613 20.8082C256.081 22.2094 259.151 24.1711 259.151 28.8302V28.9002C259.151 34.2249 255.058 37.2025 249.273 37.2025C245.78 37.1674 242.182 36.0815 239.183 33.9446Z" fill="#00B2BA"/>
<path d="M263.172 23.4706V23.4005C263.172 15.7989 269.205 9.56348 277.53 9.56348C285.856 9.56348 291.818 15.7289 291.818 23.3305V23.4005C291.818 31.0022 285.785 37.2376 277.46 37.2376C269.134 37.2376 263.172 31.0722 263.172 23.4706ZM285.609 23.4706V23.4005C285.609 18.8115 282.222 14.9932 277.46 14.9932C272.697 14.9932 269.381 18.7415 269.381 23.3305V23.4005C269.381 27.9895 272.768 31.8079 277.53 31.8079C282.293 31.8079 285.609 28.0596 285.609 23.4706Z" fill="#00B2BA"/>
<path d="M150.601 72.7937V49.6735C150.601 49.1831 151.024 48.7627 151.518 48.7627H167.746C168.204 48.7627 168.592 49.148 168.592 49.6034C168.592 50.0588 168.204 50.4442 167.746 50.4442H152.435V60.2527H166.158C166.617 60.2527 167.005 60.6381 167.005 61.0934C167.005 61.5488 166.617 61.9342 166.158 61.9342H152.471V71.9529H167.958C168.416 71.9529 168.804 72.3383 168.804 72.7937C168.804 73.2491 168.416 73.6344 167.958 73.6344H151.553C151.024 73.7395 150.601 73.3191 150.601 72.7937Z" fill="#00506D"/>
<path d="M173.814 72.4083L182.809 60.9883L174.272 50.1639C174.096 49.9187 173.955 49.7085 173.955 49.4633C173.955 49.0429 174.378 48.6226 174.837 48.6226C175.189 48.6226 175.401 48.7977 175.613 49.078L183.938 59.7623L192.158 49.2181C192.405 48.9028 192.652 48.6576 193.04 48.6576C193.499 48.6576 193.851 49.0429 193.851 49.4983C193.851 49.7085 193.746 49.9187 193.604 50.0938L185.032 60.9533L193.922 72.3032C194.134 72.5484 194.239 72.7586 194.239 73.0038C194.239 73.4242 193.816 73.8446 193.357 73.8446C193.005 73.8446 192.793 73.6694 192.581 73.3892L183.903 62.1794L175.331 73.2841C175.084 73.5993 174.837 73.8446 174.449 73.8446C173.99 73.8446 173.637 73.4592 173.637 73.0038C173.567 72.7936 173.672 72.5835 173.814 72.4083Z" fill="#00506D"/>
<path d="M200.589 49.6735C200.589 49.1831 201.013 48.7627 201.507 48.7627H209.691C215.23 48.7627 219.04 51.5651 219.04 56.3994V56.4694C219.04 61.724 214.489 64.4213 209.232 64.4213H202.459V72.9338C202.459 73.4242 202.036 73.8446 201.542 73.8446C201.048 73.8446 200.625 73.4242 200.625 72.9338V49.6735H200.589ZM209.374 62.7049C214.03 62.7049 217.205 60.2877 217.205 56.5745V56.5044C217.205 52.546 214.101 50.4792 209.585 50.4792H202.459V62.7049H209.374Z" fill="#00506D"/>
<path d="M224.614 72.7937V49.6735C224.614 49.1831 225.037 48.7627 225.531 48.7627H241.759C242.217 48.7627 242.605 49.148 242.605 49.6034C242.605 50.0588 242.217 50.4442 241.759 50.4442H226.483V60.2527H240.171C240.63 60.2527 241.018 60.6381 241.018 61.0934C241.018 61.5488 240.63 61.9342 240.171 61.9342H226.483V71.9529H241.97C242.429 71.9529 242.817 72.3383 242.817 72.7937C242.817 73.2491 242.429 73.6344 241.97 73.6344H225.566C225.037 73.7395 224.614 73.3191 224.614 72.7937Z" fill="#00506D"/>
<path d="M248.673 49.6735C248.673 49.1831 249.096 48.7627 249.59 48.7627H259.221C262.325 48.7627 264.795 49.7436 266.312 51.2148C267.511 52.4059 268.217 54.0523 268.217 55.8389V55.9089C268.217 60.0776 265.077 62.4596 260.844 63.0552L268.005 72.2682C268.182 72.4784 268.287 72.6886 268.287 72.8987C268.287 73.3892 267.829 73.8796 267.3 73.8796C266.947 73.8796 266.7 73.6694 266.488 73.3892L258.762 63.4055H250.543V72.9688C250.543 73.4592 250.119 73.8796 249.625 73.8796C249.132 73.8796 248.708 73.4592 248.708 72.9688V49.6735H248.673ZM259.045 61.724C263.243 61.724 266.382 59.6222 266.382 56.014V55.944C266.382 52.581 263.737 50.4792 259.15 50.4792H250.578V61.724H259.045Z" fill="#00506D"/>
<path d="M281.27 50.4791H273.226C272.768 50.4791 272.38 50.0937 272.38 49.6383C272.38 49.1829 272.768 48.7976 273.226 48.7976H291.183C291.641 48.7976 292.029 49.1829 292.029 49.6383C292.029 50.0937 291.641 50.4791 291.183 50.4791H283.139V72.9687C283.139 73.4591 282.716 73.8795 282.222 73.8795C281.728 73.8795 281.305 73.4591 281.305 72.9687V50.4791H281.27Z" fill="#00506D"/>
</svg>
