<?xml version="1.0" encoding="utf-8"?>
<!-- Generator: Adobe Illustrator 28.2.0, SVG Export Plug-In . SVG Version: 6.00 Build 0)  -->
<svg version="1.1" id="Layer_1" xmlns="http://www.w3.org/2000/svg" xmlns:xlink="http://www.w3.org/1999/xlink" x="0px" y="0px"
	 viewBox="0 0 260 148" style="enable-background:new 0 0 260 148;" xml:space="preserve">
<style type="text/css">
	.st0{fill:#010101;}
	.st1{fill:#0A2543;}
	.st2{fill:#82C0DF;}
</style>
<g>
	<path class="st0" d="M96.9,107.6l-8.2,21.6c0-7-6.9-8.4-9.1-9c-7.7-2-9.2-2.3-9.2-4.7c0-2.6,2.5-3.5,4.7-3.5c3.2,0,5.9,0.9,6.1,4.6
		h6.5c0-7.1-5.9-9.9-12.3-9.9c-5.5,0-11.3,2.9-11.5,9.1c-0.5-6.5-6.1-9.1-12.3-9.1c-5.5,0-11.5,3-11.5,9.3c0,5.8,4.6,7.5,9.2,8.7
		c4.5,1.2,9.1,1.8,9.1,5.1c0,3.1-3.6,3.8-6,3.8c-3.6,0-6.8-1.6-6.8-5.7h-6.5l-7.7-20.6h-6.9l-11.7,30.8h6.8l2.4-6.8l11.5,0l2.3,6.9
		h7l-1.1-2.9c2.5,2.5,6.3,3.6,10.3,3.6c6.2,0,10.2-2.3,11.9-5.8c2.2,4,6.9,5.8,11.9,5.8c4.8,0,8.3-1.4,10.5-3.7l-1.1,3h6.9l2.4-6.9
		l11.5,0l2.3,6.9l7,0l-11.5-30.8H96.9z M23.8,126.5l4-11.3h0.1l3.9,11.3L23.8,126.5z M76.1,133.9c-3.6,0-6.8-1.6-6.8-5.7l-4.5,0
		c-0.7-6.1-6.9-7.4-9.1-7.9c-7.7-2-9.2-2.3-9.2-4.6c0-2.6,2.5-3.5,4.7-3.5c3.2,0,5.9,0.9,6.1,4.6h6.5c0.3,5.3,4.7,7,9.1,8.1
		c4.5,1.2,9.1,1.8,9.1,5.1C82.1,133.2,78.5,133.9,76.1,133.9z M96.2,126.5l4-11.3h0.1l3.9,11.3L96.2,126.5z M169.9,121.7
		c2.7-1.3,4.2-3.4,4.2-6.4c0-5.7-4-7.6-9.8-7.6l-14.5,0l0,28.5l-10.7-28.5l-6.9,0l-11.7,30.8h6.9l2.4-6.9h11.5l2.3,6.8l7,0l0,0
		l14.1,0c5.6,0,10.8-2.7,10.9-8.9C175.6,125.6,173.7,122.8,169.9,121.7z M131.5,126.5l4-11.3h0.1l3.9,11.3H131.5z M156.6,112.9h6.3
		c2.4,0,4.7,0.6,4.7,3.5c0,2.6-1.8,3.7-4.1,3.7l-6.9,0L156.6,112.9z M163.8,133.1l-7.2,0l0-8.4l7.4,0c2.9,0,4.9,1.3,4.9,4.4
		C168.8,132.3,166.5,133.1,163.8,133.1z M207.3,106.9c-9.5,0-15.1,7.1-15.1,16.2c0,3.6,0.9,6.9,2.7,9.5h-11.5l0-25l-6.8,0l0,30.8
		h19.6v-3.9c2.6,2.9,6.4,4.6,11.1,4.6c9.5,0,15.1-7.1,15.1-16C222.4,114,216.8,106.9,207.3,106.9z M207.3,133.4
		c-6.1,0-8.4-5.2-8.4-10.3c0-5.4,2.3-10.6,8.4-10.6c6.1,0,8.4,5.2,8.4,10.5C215.6,128.3,213.3,133.4,207.3,133.4z M239.6,107.6
		l-7.1,12.1l-7.2-12.1h-7.6l11.3,18.7v12h6.8l0-11.8l11.4-18.9L239.6,107.6z"/>
	<path class="st0" d="M256.9,95.8h-2v-8.4l-250.1,0c-0.9,0-1.6-0.7-1.6-1.6l0-8.8h2v8.5l250.1,0c0.9,0,1.6,0.7,1.6,1.6L256.9,95.8z"
		/>
	<g>
		<path class="st1" d="M108.8,27h1.9c2.2,0,3.8-0.9,4.8-2.5c1-1.6,1.5-3.8,1.5-6.4c0-2.4-0.6-4.3-1.8-5.5c-1.2-1.3-2.6-1.9-4.3-1.9
			h-2.2V27L108.8,27z M111,5.7c5,0.1,8.6,1.3,10.8,3.8c2.2,2.4,3.2,5.3,3.2,8.6c-0.1,4.8-1.5,8.3-4.3,10.5
			c-2.8,2.2-6.1,3.4-10.1,3.4h-9.6V5.7H111L111,5.7z"/>
		<path class="st1" d="M139.1,16.1c-0.6,0-1.1,0.2-1.5,0.5c-0.4,0.4-0.8,0.9-1,1.5c-0.5,1.3-0.7,2.7-0.7,4.2c0,1.6,0.2,3,0.7,4.5
			c0.2,0.7,0.6,1.2,1,1.6c0.4,0.5,0.9,0.7,1.6,0.7c0.6,0,1.2-0.2,1.7-0.7c0.4-0.4,0.7-0.9,1-1.6c0.3-0.7,0.5-1.4,0.6-2.2
			c0.1-0.8,0.1-1.5,0.1-2.3c0-1.5-0.2-2.9-0.7-4.2c-0.2-0.6-0.6-1.1-1-1.5C140.3,16.3,139.7,16.1,139.1,16.1L139.1,16.1z
			 M139.1,32.4c-3.2-0.1-5.7-1-7.7-2.9c-1.9-1.8-2.9-4.2-3-7.1c0.1-3,1.2-5.4,3.3-7.1c2.1-1.7,4.5-2.5,7.3-2.5
			c2.8,0,5.3,0.8,7.4,2.5c2.1,1.7,3.2,4,3.2,7.1c0,2.9-1,5.3-2.9,7.1C144.9,31.3,142.3,32.3,139.1,32.4L139.1,32.4z"/>
		<path class="st1" d="M162.8,16.1c-0.6,0-1.1,0.2-1.5,0.5c-0.4,0.4-0.8,0.9-1,1.5c-0.5,1.3-0.7,2.7-0.7,4.2c0,1.6,0.2,3,0.7,4.5
			c0.2,0.7,0.6,1.2,1,1.6c0.4,0.5,0.9,0.7,1.6,0.7c0.6,0,1.2-0.2,1.7-0.7c0.4-0.4,0.7-0.9,1-1.6c0.3-0.7,0.5-1.4,0.6-2.2
			c0.1-0.8,0.1-1.5,0.1-2.3c0-1.5-0.2-2.9-0.7-4.2c-0.2-0.6-0.6-1.1-1-1.5C164,16.3,163.5,16.1,162.8,16.1L162.8,16.1z M162.8,32.4
			c-3.2-0.1-5.7-1-7.7-2.9c-1.9-1.8-2.9-4.2-3-7.1c0.1-3,1.2-5.4,3.3-7.1c2.1-1.7,4.5-2.5,7.3-2.5c2.8,0,5.3,0.8,7.4,2.5
			c2.1,1.7,3.2,4,3.2,7.1c0,2.9-1,5.3-2.9,7.1C168.6,31.3,166,32.3,162.8,32.4L162.8,32.4z"/>
		<path class="st1" d="M184.3,18L184.3,18l0.6-1.5c0.1-0.2,0.2-0.5,0.4-1c0.1-0.4,0.4-0.8,0.7-1.3c0.3-0.4,0.6-0.8,1.1-1.1
			c0.4-0.3,1-0.4,1.6-0.4c0.8,0,1.5,0.1,2,0.4c0.5,0.3,1.1,0.6,1.6,1l-2.2,5.5c-0.2-0.1-0.4-0.2-0.8-0.3c-0.3-0.1-0.8-0.1-1.3-0.1
			c-0.4,0-0.8,0-1.2,0.1c-0.4,0.1-0.8,0.4-1.2,0.7c-0.4,0.3-0.7,0.8-0.9,1.4c-0.2,0.6-0.4,1.4-0.4,2.4v8H177V13.2h7.2V18L184.3,18z"
			/>
		<path class="st1" d="M112.8,44.2c-1-0.6-2.3-1-3.7-1c-1.7,0-2.5,0.6-2.5,1.6c0,0.3,0.1,0.7,0.4,1c0.2,0.4,0.6,0.7,1.1,1.1
			c0.9,0.7,2.1,1.7,3.4,2.9c1.6,1.5,2.7,2.9,3.3,4c0.6,1.2,0.8,2.5,0.8,3.8c0,0.6-0.1,1.3-0.4,2.1c-0.3,0.9-0.8,1.7-1.5,2.6
			c-0.7,0.8-1.6,1.5-2.8,2.1c-1.3,0.6-2.8,0.9-4.8,0.9c-1.5,0-2.9-0.2-4.3-0.6c-1.4-0.4-2.6-1-3.7-1.8l2.3-4.3
			c0.6,0.4,1.2,0.8,1.9,1.2c0.7,0.4,1.5,0.6,2.4,0.6c0.8,0,1.5-0.2,2.2-0.7c0.7-0.4,1-1.1,1-2c0-0.5-0.1-1-0.4-1.5
			c-0.3-0.5-0.6-0.9-1-1.3c-0.9-0.8-1.9-1.7-3-2.6c-1.4-1.1-2.5-2.2-3.3-3.2c-0.8-1-1.2-2.2-1.2-3.8c0-2.1,0.9-3.8,2.7-5.1
			c1.7-1.3,3.8-1.9,6.3-1.9c1.7,0,3.1,0.2,4.3,0.6c1.2,0.4,2,0.8,2.4,1.1L112.8,44.2L112.8,44.2z"/>
		<path class="st1" d="M124.7,45.9c1.1,3.4,2.1,7.4,3.1,11.9h0.1c1.2-4.5,2.4-8.5,3.7-11.9l5.6,0.9l-8.8,20.5
			c-0.7,1.9-1.8,3.5-3.1,4.9c-1.4,1.4-3.3,2.1-5.8,2.2H117v-4.6h1.3c0.5,0,0.9,0,1.5-0.1c0.5-0.1,1-0.3,1.5-0.7
			c0.5-0.4,0.9-1,1.4-1.8c0.4-0.8,0.8-2,1.2-3.4l-6.5-16.9L124.7,45.9L124.7,45.9z"/>
		<path class="st1" d="M151.2,50.5c-1.2-0.6-2.1-0.9-2.7-0.9c-1,0-1.5,0.5-1.5,1.4c0,0.3,0.1,0.6,0.4,0.9c0.2,0.3,0.5,0.6,0.8,0.9
			c0.4,0.3,0.8,0.6,1.2,0.9c0.4,0.3,0.9,0.7,1.4,1c0.8,0.6,1.4,1.1,1.8,1.6c0.4,0.5,0.6,1.1,0.7,1.6c0.2,0.5,0.2,0.8,0.2,1.2
			c-0.1,0.3-0.1,0.5-0.1,0.7c0,0.5-0.1,1-0.4,1.6c-0.3,0.7-0.8,1.3-1.4,1.9c-1.2,1.3-3.1,2.1-5.6,2.1c-1.1,0-2.2-0.1-3.4-0.4
			c-1.2-0.2-2.3-0.7-3.4-1.4l1.5-3.8c0.6,0.4,1.2,0.7,1.9,1.1c0.7,0.4,1.4,0.6,2,0.6c1.1,0,1.7-0.5,1.7-1.6c0-0.6-0.4-1.1-1.1-1.7
			c-0.7-0.5-1.6-1.1-2.6-1.7c-2-1.3-3-3-2.9-5c0-1.5,0.6-2.8,1.8-4c1.2-1.1,2.8-1.7,4.9-1.7c2.4,0,4.4,0.5,6.1,1.3L151.2,50.5
			L151.2,50.5z"/>
		<path class="st1" d="M171.2,64.2c-2,0.8-4.1,1.2-6.3,1.2c-4.3-0.1-6.4-2.1-6.3-6v-9.7h-2.5v-3.4h2.5v-4.5l7.2-1.1v5.6h4.8v3.4
			h-4.8v7.2c0,1.8,0.3,3,0.9,3.6c0.6,0.7,1.1,1,1.6,0.9c0.7,0,1.4-0.2,2-0.5L171.2,64.2L171.2,64.2z"/>
		<path class="st1" d="M186.3,53.3c0.1-3-0.7-4.4-2.5-4.4c-1.7,0-2.4,1.5-2.3,4.4H186.3L186.3,53.3z M181.4,56.5
			c0,1.5,0.5,2.6,1.4,3.3c0.8,0.8,1.8,1.1,2.9,1.1c2,0,3.5-0.5,4.7-1.4l2,3.8c-1.7,0.8-3.3,1.3-4.8,1.6c-1.5,0.3-2.8,0.4-4,0.4
			c-2.7-0.1-5-1.1-6.8-3.1c-1.9-1.9-2.9-4.3-3-7.1c0-2.4,0.8-4.6,2.5-6.5c1.7-1.9,4.2-2.9,7.6-3c6,0.2,8.8,3.7,8.4,10.7H181.4
			L181.4,56.5z"/>
		<path class="st1" d="M203,48.4L203,48.4c0.4-0.4,0.7-0.8,1.2-1.1c0.5-0.3,1-0.6,1.6-0.8c1.2-0.5,2.5-0.7,3.9-0.7
			c1,0,1.9,0.2,2.9,0.5c1,0.4,1.8,1,2.3,2.1c1.3-1.5,3.4-2.4,6.3-2.6c4.7-0.1,7,2.3,6.9,7.2v12h-7.2V53.2c0-0.7-0.2-1.4-0.6-1.9
			c-0.4-0.5-1-0.7-1.7-0.8c-2,0-3,1.2-3,3.6V65h-7.2V53.2c0-0.7-0.2-1.3-0.5-1.8c-0.4-0.5-1-0.8-1.8-0.9c-2,0-3,1.2-3,3.5v11h-7.2
			V46.3h7.2V48.4L203,48.4z"/>
		<path class="st1" d="M244.3,50.5c-1.2-0.6-2.1-0.9-2.7-0.9c-1,0-1.5,0.5-1.5,1.4c0,0.3,0.1,0.6,0.4,0.9c0.2,0.3,0.5,0.6,0.8,0.9
			c0.4,0.3,0.8,0.6,1.2,0.9c0.4,0.3,0.9,0.7,1.4,1c0.8,0.6,1.4,1.1,1.8,1.6c0.4,0.5,0.6,1.1,0.7,1.6c0.2,0.5,0.2,0.8,0.2,1.2
			c-0.1,0.3-0.1,0.5-0.1,0.7c0,0.5-0.1,1-0.4,1.6c-0.3,0.7-0.8,1.3-1.4,1.9c-1.2,1.3-3.1,2.1-5.6,2.1c-1.1,0-2.2-0.1-3.4-0.4
			c-1.2-0.2-2.3-0.7-3.4-1.4l1.5-3.8c0.6,0.4,1.2,0.7,1.9,1.1c0.7,0.4,1.4,0.6,2,0.6c1.1,0,1.7-0.5,1.7-1.6c0-0.6-0.4-1.1-1.1-1.7
			c-0.7-0.5-1.6-1.1-2.6-1.7c-2-1.3-3-3-2.9-5c0-1.5,0.6-2.8,1.8-4c1.2-1.1,2.8-1.7,4.9-1.7c2.4,0,4.4,0.5,6.1,1.3L244.3,50.5
			L244.3,50.5z"/>
	</g>
	<g>
		<path class="st2" d="M68,22.5H29.9c-0.6,0-1-0.5-1-1V19c0-0.6,0.5-1,1-1H68c0.6,0,1,0.5,1,1v2.5C69,22,68.6,22.5,68,22.5z"/>
		<path class="st2" d="M68,30.2H29.9c-0.6,0-1-0.5-1-1v-2.5c0-0.6,0.5-1,1-1H68c0.6,0,1,0.5,1,1v2.5C69,29.7,68.6,30.2,68,30.2z"/>
		<path class="st2" d="M68,37.8H29.9c-0.6,0-1-0.5-1-1v-2.5c0-0.6,0.5-1,1-1H68c0.6,0,1,0.5,1,1v2.5C69,37.3,68.6,37.8,68,37.8z"/>
		<path class="st2" d="M68,45.5H29.9c-0.6,0-1-0.5-1-1v-2.5c0-0.6,0.5-1,1-1H68c0.6,0,1,0.5,1,1v2.5C69,45,68.6,45.5,68,45.5z"/>
		<rect x="24.7" y="55.6" class="st2" width="48.4" height="4.9"/>
		<path class="st1" d="M81.6,12.4c1.3,0,2.3-1,2.3-2.3v-7c0-1.3-1-2.3-2.3-2.3H16c-1.3,0-2.3,1-2.3,2.3v7c0,1.3,1,2.3,2.3,2.3h4.2
			V51H16c-1.3,0-2.3,1-2.3,2.3c0,1.3,1,2.3,2.3,2.3h4.2v4.9H16c-1.3,0-2.3,1-2.3,2.3v0c0,1.3,1,2.3,2.3,2.3h65.7
			c1.3,0,2.3-1,2.3-2.3v0c0-1.3-1-2.3-2.3-2.3h-3.9v-4.9h3.9c1.3,0,2.3-1,2.3-2.3c0-1.3-1-2.3-2.3-2.3h-3.9V12.4H81.6z M73.1,60.4
			H24.7v-4.9h48.4V60.4z M73.1,51H24.7V12.4h48.4V51z"/>
	</g>
</g>
</svg>
