<?xml version="1.0" encoding="utf-8"?>
<!-- Generator: Adobe Illustrator 26.5.0, SVG Export Plug-In . SVG Version: 6.00 Build 0)  -->
<svg version="1.1" id="Layer_1" xmlns="http://www.w3.org/2000/svg" xmlns:xlink="http://www.w3.org/1999/xlink" x="0px" y="0px"
	 viewBox="0 0 474.2 179.4" style="enable-background:new 0 0 474.2 179.4;" xml:space="preserve">
<style type="text/css">
	.st0{fill:none;}
	.st1{fill:#FFFFFF;}
	.st2{fill:#EF4044;}
	.st3{fill:#1D3F88;}
	.st4{fill:#FFF32A;}
	.st5{fill:#2A4273;}
</style>
<g>
	<rect class="st0" width="473.9" height="179.3"/>
	<path class="st1" d="M178.9,0H0v179.3h178.9V0z"/>
	<path class="st2" d="M70.9,65c-14.5,22.7-17.2,27.8-21.1,49.4c0,0-1.6,9.4-0.4,11c1.2,1.6,26.6,1.2,44.3,0
		c17.6-1.2,60.3-5.9,67-8.2c4.9-1.7,13.1-2.8,18.4-6.1V2c-10.3,2.6-43.1,11.3-55.6,19.2C108.5,30.6,85.4,42.3,70.9,65z"/>
	<path class="st3" d="M23.5,69.3c20-20.4,42.7-35.2,65-44.6c23.5-12.9,83-23.3,90.5-24.5V0H0v121.5c0.1-0.7,0.3-1.4,0.4-2
		C9.4,85.8,23.5,69.3,23.5,69.3z"/>
	<path class="st4" d="M164.9,128.5c-9,4.7-34.1,14.1-54.4,16.8s-62.7,8.6-82.2,7.4c-13.3-0.8-20,3.5-25.4-5.5c0,0,0-1.7-2.7-7.4
		v39.6h178.9v-65.5C176.1,118.3,170.8,125.4,164.9,128.5z"/>
	<path class="st5" d="M257,162.1l-11.6,16.2h-48l0.9-2.9c7.6,0,9.5-2.3,12.7-12.1l11.1-34.6c3.1-9.7,2.7-12.1-4.9-12.1l0.9-2.9H245
		l-0.9,2.9c-7.7,0-9.7,2.4-12.8,12.1l-11.7,36.3c-2.5,7.8-2.6,10.3,6.6,10.3c12.4,0,19.3-4.5,28.6-14.4L257,162.1L257,162.1z"/>
	<path class="st5" d="M276.8,124.6c-3.4,0-5.4-2.6-4.3-5.8c1.1-3.3,4.6-5.9,8-5.9c3.4,0,5.4,2.6,4.3,5.9
		C283.8,121.9,280.2,124.6,276.8,124.6z M268.7,166.3c-2.6,8.3-2.8,8.8,3.3,9.5l-0.8,2.6h-20.7l0.8-2.6c6.5-0.7,6.7-1.3,9.3-9.5
		l6.1-18.9c1.2-4.7,1.7-6.4-4-6.4l0.7-2.1l15.8-5.2L268.7,166.3L268.7,166.3z"/>
	<path class="st5" d="M294,166.3c-2.6,8.3-2.8,8.8,3.2,9.5l-0.8,2.6h-20.7l0.8-2.6c6.5-0.7,6.7-1.2,9.3-9.5l6.1-19
		c1.2-4.7,1.7-6.4-4-6.4l0.7-2.1l15.8-5.2l-2.4,7.5c4.7-3.6,11.6-6.9,16.7-6.9c3.3,0,6.1,1.2,7.7,3.4c2,3.3,0.8,7.3-0.5,11.5
		l-5.5,17.1c-2.6,8.3-2.8,8.8,3.2,9.5l-0.8,2.6h-20.7l0.8-2.6c6.6-0.7,6.8-1.2,9.5-9.5l4.9-15.4c1.7-5.3,3.4-11.9-3.9-11.9
		c-4.1,0-8.9,3.2-12.5,5.8L294,166.3L294,166.3z"/>
	<path class="st5" d="M353.3,124.6c-3.4,0-5.4-2.6-4.3-5.8c1.1-3.3,4.6-5.9,8-5.9c3.4,0,5.4,2.6,4.3,5.9
		C360.3,121.9,356.7,124.6,353.3,124.6z M345.2,166.3c-2.6,8.3-2.8,8.8,3.3,9.5l-0.8,2.6h-20.7l0.8-2.6c6.5-0.7,6.7-1.3,9.3-9.5
		l6.1-18.9c1.2-4.7,1.7-6.4-4-6.4l0.7-2.1l15.8-5.2L345.2,166.3z"/>
	<path class="st5" d="M394.1,167.9c-6.5,6.4-14.8,11.5-23.2,11.5c-12.1,0-17.4-10.5-13.9-21.4c4.2-13.1,16.9-23.6,31.2-23.6
		c5.3,0,14.2,3.1,12.2,9.2c-0.8,2.6-3.7,4.4-6.4,4.4c-6.8,0-0.7-10.7-9.6-10.7c-9.5,0-15.2,12-17.4,18.8c-2.7,8.4-1.1,18.7,9.2,18.7
		c6.3,0,11.6-3.9,16.9-8L394.1,167.9z"/>
	<path class="st5" d="M427.4,155.3c-6.9,1.1-18.5,5.3-20.8,12.6c-1.3,4.2,0.9,6.8,4.6,6.8c3.4,0,8.5-2.6,11.6-5L427.4,155.3
		L427.4,155.3z M430.2,146.5c1.4-4.3,2.1-9.4-3.5-9.4c-4.6,0-7.5,2.9-9.8,6.7c-1.7,2.7-3.4,4.4-6.8,4.4c-2.6,0-3.9-1.5-3.1-3.9
		c2.3-7.3,14.1-10.1,20.1-10.1c3.9,0,8.4,0.6,10.8,3.1c2.5,2.6,1.3,6.4,0.1,10.1l-6.4,20.1c-0.7,2.1-1.9,6,0.9,6
		c1.6,0,3-1.1,4.5-2.2l0.6,1.9c-3.4,3.3-7.1,6.2-11.4,6.2c-3.8,0-5-2.8-4.3-6.2c-5.3,3.3-11.3,6.2-16.8,6.2c-6.5,0-9.6-4.2-7.6-10.5
		c3.8-11.7,20.8-14.7,30.9-16.5L430.2,146.5L430.2,146.5z"/>
	<path class="st5" d="M460.8,126.1c2.4-7.7,1.1-7.3-5.4-7.8l0.8-2.6l17.6-5l-17.8,55.6c-2.6,8.3-2.8,8.8,3.3,9.5l-0.8,2.6h-20.7
		l0.8-2.6c6.4-0.7,6.6-1.2,9.2-9.5L460.8,126.1z"/>
	<path class="st5" d="M215.3,8.3l-0.7,0.4C213,6.6,210.1,4,207.4,4c-4.8,0-6.2,5.2-6.2,9.1c0,4.2,2.2,9.9,7.1,9.8
		c3.1,0,5.2-2.1,6.7-4.7l0.6,0.4c-1.6,3.4-4.5,6.1-8.4,6.1c-5.8,0-9.4-4.7-9.4-10.2c0-2.6,0.9-5.3,2.3-7.5c1.5-2.3,3.9-4.2,6.8-4.2
		c1,0,1.8,0.2,2.4,0.5c0.7,0.2,1.3,0.5,1.9,0.5c0.8,0,1.3-0.3,2-0.6L215.3,8.3L215.3,8.3z"/>
	<path class="st5" d="M220.3,7.1c0-2.5-0.4-2.4-2.5-2.6V3.7l5-1.7v18.3c0,2.7,0,2.9,2,3.2v0.8h-6.5v-0.8c1.9-0.2,1.9-0.4,1.9-3.1
		V7.1z"/>
	<path class="st5" d="M229.7,6.6c-1.1,0-1.9-0.8-1.9-1.9s0.8-2,1.9-2c1.1,0,2,0.9,2,2S230.7,6.6,229.7,6.6 M231.4,20.4
		c0,2.7,0,2.9,2,3.2v0.8h-6.5v-0.9c2-0.2,2-0.4,2-3.1v-6.2c-0.1-1.5-0.1-2.1-1.9-2.1v-0.7l4.5-1.7V20.4L231.4,20.4z"/>
	<path class="st5" d="M240,20.4c0,2.7,0,2.9,2,3.2v0.8h-6.5v-0.8c2-0.2,2-0.4,2-3.2v-6.3c-0.1-1.5-0.1-2.1-1.9-2.1v-0.7l4.5-1.7V12
		c1.1-1.2,3-2.3,4.6-2.3c1,0,2,0.4,2.8,1.1c1,1.1,1,2.4,1,3.8v5.6c0,2.7,0,2.9,2,3.2v0.8h-6.5v-0.8c2-0.2,2-0.4,2-3.2v-5.1
		c0-1.7-0.1-3.9-2.4-3.9c-1.3,0-2.5,1.1-3.3,1.9V20.4L240,20.4z"/>
	<path class="st5" d="M255.5,6.6c-1.1,0-2-0.8-2-1.9s0.8-2,1.9-2c1.1,0,2,0.9,2,2C257.4,5.7,256.5,6.6,255.5,6.6z M257.1,20.3
		c0,2.7,0,2.9,2,3.1v0.8h-6.5v-0.9c2-0.2,2-0.5,2-3.1v-6.2c-0.1-1.6-0.1-2.1-1.9-2.1v-0.7l4.5-1.7V20.3z"/>
	<path class="st5" d="M274.1,20.9c-1.4,2.1-3.5,3.8-6.1,3.8c-3.8,0-6.5-3.5-6.5-7.1c0-4.3,2.9-7.8,7.4-7.8c1.7,0,4.8,1,4.8,3.1
		c0,0.8-0.7,1.4-1.6,1.4c-2.2,0-1.3-3.6-4.1-3.6c-3,0-3.6,4-3.6,6.2c0,2.8,1.5,6.2,4.8,6.2c2,0,3.3-1.3,4.5-2.6L274.1,20.9
		L274.1,20.9z"/>
	<path class="st5" d="M284.5,16.7c-2.1,0.4-5.3,1.7-5.3,4.2c0,1.4,1,2.2,2.1,2.2c1.1,0,2.4-0.8,3.1-1.7V16.7L284.5,16.7z
		 M284.5,13.8c0-1.4-0.3-3.1-2-3.1c-1.4,0-2.1,1-2.4,2.2c-0.3,0.9-0.6,1.4-1.7,1.4c-0.8,0-1.4-0.5-1.4-1.3c0-2.4,3.4-3.3,5.3-3.3
		c1.2,0,2.7,0.2,3.7,1c1.1,0.9,1.1,2.1,1.1,3.3v6.6c0,0.7,0,2,0.9,2c0.5,0,0.8-0.4,1.2-0.7l0.4,0.6c-0.8,1.1-1.6,2-3,2
		c-1.2,0-1.9-0.9-2-2c-1.4,1.1-2.9,2-4.7,2c-2,0-3.4-1.4-3.4-3.5c0-3.9,5.1-4.9,8-5.5V13.8L284.5,13.8z"/>
	<path class="st5" d="M293.1,7c0-2.5-0.4-2.4-2.5-2.6V3.6l5-1.7v18.3c0,2.7,0,2.9,2,3.1v0.8h-6.5v-0.8c2-0.2,2-0.4,2-3.2L293.1,7
		L293.1,7z"/>
	<path class="st5" d="M203.1,51.7c0,3.1,0.5,3.9,2.8,3.9c5.9,0,7.8-4.7,7.8-9.9c0-5.3-1.9-9.5-7.8-9.5c-2.5,0-2.9,0.6-2.8,3.7
		L203.1,51.7L203.1,51.7z M197.5,56.6v-1c2.3,0,2.7-0.8,2.7-4V40.3c0-3.2-0.4-4-2.7-4v-1h8c2.4,0,5,0.2,7.7,2.1
		c2.7,2,3.9,4.9,3.9,8.3c0,7.1-4.8,11-11.6,11H197.5z"/>
	<path class="st5" d="M230.6,47.5c0.2-2-0.7-4.5-3.2-4.5c-2.5,0-3.5,2.5-3.6,4.5H230.6z M223.7,48.6c0,2.9,0.8,7.1,4.5,7.1
		c2,0,3.6-1.1,4.8-2.6l0.5,0.5c-1.2,2-3.3,3.4-5.6,3.4c-4.1,0-7-3.3-7-7.3c0-3.7,2.6-7.6,6.7-7.6c3.6,0,6.1,3.1,6.1,6.5H223.7
		L223.7,48.6z"/>
	<path class="st5" d="M245.2,46.6c0.2-0.6,0.6-1.4,0.6-2c0-1.1-1-1.4-1.9-1.4v-0.8h5.8v0.8c-0.4,0-0.9,0-1.2,0.3
		c-0.5,0.5-1.1,2-1.4,2.8l-4.1,10.3h-1.4L237,45.4c-0.5-1.1-0.7-2.2-2.1-2.2v-0.8h6.5v0.8c-0.8,0-1.9,0.1-1.9,1.1
		c0,0.5,0.3,1.2,0.5,1.6l2.8,7.1L245.2,46.6L245.2,46.6z"/>
	<path class="st5" d="M261,47.5c0.2-2-0.7-4.5-3.3-4.5c-2.5,0-3.5,2.5-3.6,4.5H261L261,47.5z M254.1,48.6c0,2.9,0.8,7.1,4.5,7.1
		c2,0,3.6-1.1,4.8-2.6l0.5,0.5c-1.2,2-3.3,3.4-5.6,3.4c-4.1,0-7-3.3-7-7.3c0-3.7,2.6-7.6,6.7-7.6c3.6,0,6.1,3.1,6.1,6.5L254.1,48.6
		L254.1,48.6z"/>
	<path class="st5" d="M268.6,39.3c0-2.5-0.4-2.4-2.5-2.6v-0.8l5-1.7v18.3c0,2.7,0,2.9,2,3.1v0.8h-6.5v-0.8c2-0.2,2-0.4,2-3.2V39.3
		L268.6,39.3z"/>
	<path class="st5" d="M285.7,49.1c0-2.1-0.7-6.1-3.5-6.1c-3,0-3.7,3.9-3.7,6.1c0,2.1,0.7,6.9,3.5,6.9
		C285,55.9,285.7,51.3,285.7,49.1 M275.5,49.7c0-3.8,2.5-7.7,6.6-7.7c4,0,6.5,3.9,6.5,7.6c0,3.7-2.7,7.2-6.6,7.2
		C278.1,56.8,275.5,53.2,275.5,49.7z"/>
	<path class="st5" d="M295.8,53.9c0.8,0.8,1.9,1.7,3.1,1.7c3.2,0,3.8-4,3.8-6.5c0-2.5-0.8-5.9-3.9-5.9c-1,0-2.4,1-3.1,1.7
		L295.8,53.9L295.8,53.9z M295.8,57.6c0,2.7,0,2.9,2,3.2v0.8h-6.5v-0.8c2-0.3,2-0.5,2-3.2V46.3c-0.1-1.5-0.2-2.1-1.9-2.1v-0.7
		l4.5-1.7v2.1c1.2-1.1,2.5-1.9,4.2-1.9c3.6,0,5.6,3.9,5.5,7.1c0,3.6-1.8,7.8-5.9,7.8c-1.4,0-2.7-0.8-3.7-1.8L295.8,57.6L295.8,57.6z
		"/>
	<path class="st5" d="M312.4,52.5c0,2.7,0,2.9,2,3.1v0.8h-6.5v-0.8c2-0.2,2-0.4,2-3.2v-6.3c-0.1-1.6-0.1-2.1-1.9-2.1v-0.7l4.5-1.7
		v2.9c1.1-1.5,2.9-2.7,4.8-2.7c1.7,0,2.9,1.2,3.5,2.7c1.4-1.4,2.9-2.7,5-2.7c1.3,0,2.4,0.4,3.1,1.6c0.6,1.1,0.6,2.7,0.6,4v4.9
		c0,2.7,0,2.9,2,3.1v0.8h-6.5v-0.8c2-0.2,2-0.4,2-3.1v-5.2c0-1.6,0-3.8-2.1-3.8c-1.5,0-2.8,1.1-3.8,2.1v6.9c0,2.7,0,2.9,2,3.1v0.8
		h-6.5v-0.8c2-0.2,2-0.4,2-3.2v-5.2c0-1.6-0.1-3.8-2.2-3.8c-1.5,0-2.9,1.1-3.7,2.1L312.4,52.5L312.4,52.5z"/>
	<path class="st5" d="M343.6,47.4c0.2-2-0.7-4.5-3.2-4.5c-2.5,0-3.5,2.5-3.6,4.5H343.6z M336.7,48.5c0,2.9,0.8,7.1,4.5,7.1
		c2,0,3.6-1.1,4.8-2.6l0.5,0.5c-1.2,2-3.3,3.4-5.6,3.4c-4.1,0-7-3.3-7-7.3c0-3.7,2.6-7.6,6.7-7.6c3.6,0,6.1,3.1,6.1,6.6L336.7,48.5
		L336.7,48.5z"/>
	<path class="st5" d="M353.6,52.5c0,2.7,0,2.9,2,3.1v0.8H349v-0.8c2-0.2,2-0.4,2-3.2v-6.3c-0.1-1.5-0.1-2.1-1.9-2.1v-0.7l4.5-1.7
		v2.5c1.1-1.2,3-2.3,4.6-2.3c1,0,2,0.4,2.8,1.1c1,1.1,1,2.4,1,3.8v5.7c0,2.7,0,2.9,2,3.1v0.8h-6.5v-0.8c2-0.2,2-0.4,2-3.2v-5.1
		c0-1.7-0.1-3.9-2.4-3.9c-1.3,0-2.5,1.1-3.3,1.9L353.6,52.5L353.6,52.5z"/>
	<path class="st5" d="M365.7,43.2v-0.7c2.2-0.9,3.5-3.1,3.7-5.4h1v5.1h4.1v1h-4.1V52c0,1.3-0.1,3.2,1.7,3.2c1.1,0,1.8-0.7,2.6-1.4
		l0.5,0.6c-1.1,1.3-2.6,2.4-4.3,2.4c-2.6,0-3-2.1-3-4.2v-9.4H365.7z"/>
	<path class="st5" d="M203.2,77.9h1.1c3.7,0,6.8-0.7,6.8-5c0-3.2-2.1-4.4-5.1-4.4c-2.8,0-2.9,1.2-2.9,3.6V77.9z M203.2,83.9
		c0,3.2,0.4,4,2.7,4v1h-8.4v-0.9c2.4,0,2.8-0.8,2.8-4V72.5c0-3.2-0.4-4-2.8-4v-1h10.1c3.4,0,6.6,1.8,6.6,5.5c0,4.7-4.2,5.8-8.5,5.8
		h-2.5L203.2,83.9L203.2,83.9z"/>
	<path class="st5" d="M224.2,81.2c-2.1,0.3-5.3,1.7-5.3,4.2c0,1.4,1,2.3,2.1,2.2c1.1,0,2.4-0.8,3.1-1.7V81.2L224.2,81.2z
		 M224.2,78.3c0-1.4-0.3-3.1-2-3.1c-1.4,0-2.1,1-2.4,2.2c-0.3,0.9-0.6,1.4-1.7,1.4c-0.8,0-1.4-0.5-1.4-1.3c0-2.4,3.4-3.3,5.3-3.3
		c1.2,0,2.7,0.2,3.7,1c1.1,0.9,1.1,2.1,1.1,3.3v6.6c0,0.7,0,2,0.9,2c0.5,0,0.8-0.4,1.2-0.7l0.4,0.6c-0.7,1.1-1.6,2-3,2
		c-1.2,0-1.9-0.9-2-2c-1.3,1.1-2.9,2-4.7,2c-2,0-3.4-1.4-3.4-3.5c0-3.9,5.1-4.9,8-5.5L224.2,78.3L224.2,78.3z"/>
	<path class="st5" d="M235.1,84.8c0,2.7,0,2.9,2,3.1v0.8h-6.4V88c1.9-0.2,1.9-0.4,1.9-3.2v-6.3c-0.1-1.5-0.1-2.1-1.9-2.1v-0.7
		l4.5-1.7v3.4c1.1-1.4,2.9-3.4,4.8-3.4c1,0,1.8,0.7,1.8,1.7c0,0.9-0.6,1.6-1.6,1.6c-1,0-1.4-0.8-2.3-0.8c-1,0-2.2,1.3-2.7,2.2V84.8
		L235.1,84.8z"/>
	<path class="st5" d="M242.8,75.5v-0.7c2.1-0.9,3.5-3.2,3.7-5.4h1v5.1h4.1v1h-4.1v8.8c0,1.3-0.2,3.2,1.7,3.2c1.1,0,1.8-0.7,2.6-1.4
		l0.5,0.6c-1.1,1.2-2.6,2.4-4.3,2.4c-2.6,0-3-2.1-3-4.2v-9.4H242.8L242.8,75.5z"/>
	<path class="st5" d="M257.8,84.8c0,2.7,0,2.9,2,3.1v0.8h-6.5v-0.8c2-0.2,2-0.4,2-3.1v-6.3c-0.1-1.5-0.1-2.1-1.9-2.1v-0.7l4.5-1.7
		v2.5c1.1-1.2,3-2.3,4.6-2.3c1,0,2,0.4,2.8,1.1c1,1.1,1,2.4,1,3.8v5.7c0,2.7,0,2.9,2,3.1v0.8h-6.5V88c2-0.2,2-0.4,2-3.2v-5.1
		c0-1.7-0.1-3.9-2.4-3.9c-1.3,0-2.5,1.1-3.3,1.9L257.8,84.8L257.8,84.8z"/>
	<path class="st5" d="M280.5,79.7c0.2-2-0.7-4.5-3.2-4.5s-3.5,2.5-3.6,4.5H280.5z M273.6,80.8c0,2.9,0.9,7.1,4.5,7.1
		c2,0,3.6-1.1,4.8-2.6l0.5,0.5c-1.2,2-3.3,3.4-5.6,3.4c-4.1,0-7-3.3-7-7.3c0-3.7,2.6-7.6,6.7-7.6c3.6,0,6.1,3.1,6.1,6.5L273.6,80.8
		L273.6,80.8z"/>
	<path class="st5" d="M290.4,84.8c0,2.7,0,2.9,2,3.2v0.8h-6.4v-0.8c1.9-0.2,1.9-0.4,1.9-3.1v-6.3c-0.1-1.5-0.1-2.1-1.9-2.1v-0.7
		l4.5-1.7v3.4c1.1-1.4,2.9-3.4,4.8-3.4c1,0,1.8,0.7,1.8,1.7c0,0.9-0.6,1.6-1.6,1.6c-1,0-1.4-0.8-2.3-0.8c-1,0-2.2,1.4-2.7,2.2
		L290.4,84.8L290.4,84.8z"/>
</g>
</svg>
