<?xml version="1.0" encoding="utf-8"?>
<!-- Generator: Adobe Illustrator 28.2.0, SVG Export Plug-In . SVG Version: 6.00 Build 0)  -->
<svg version="1.1" id="Layer_1_xA0_Image_00000048496365015850278860000017634177324068246188_"
	 xmlns="http://www.w3.org/2000/svg" xmlns:xlink="http://www.w3.org/1999/xlink" x="0px" y="0px" viewBox="0 0 460.8 240"
	 style="enable-background:new 0 0 460.8 240;" xml:space="preserve">
<style type="text/css">
	.st0{fill:#1F5679;}
	.st1{fill:none;stroke:#47BBEA;stroke-width:2;stroke-miterlimit:10;}
</style>
<g>
	<path class="st0" d="M332.9,12.2c0.5,0.1,1.1,0.2,1.6,0.2c15.4,0.6,29.2,5.7,41.5,15c5.5,4.2,12,10.5,15.2,14.8
		c-4.9,4.1-9.8,8.3-14.8,12.5c-0.3-0.4-0.6-0.7-0.9-1.1c-9.3-11.5-21.1-19.1-35.4-22.7c-5.8-1.5-11.7-1.3-17.6-0.7
		c-7.3,0.8-14.3,2.7-20.7,6.3c-16,9-25.9,22.3-28.9,40.6c-1.9,11.7-1.1,23.2,3.9,34c7.9,17,20.7,28.6,39.1,33.1
		c13,3.2,25.9,2.4,37.8-4.2c11.6-6.5,19.5-16,22.3-29.3c0.3-1.6,0.5-3.2,0.8-5c-11.4,0-22.7,0-34,0c0-0.5-0.1-0.8-0.1-1.2
		c0-5.3,0-10.6,0-15.8c0-0.9,0.3-1.2,1.2-1.2c18,0,36,0,54,0c0.3,0,0.7,0.1,1.1,0.1c0,3.3,0.1,6.6,0,9.9c-0.3,7-1.4,13.8-3.5,20.5
		c-3.1,9.6-8.2,18.1-15.2,25.4c-10.5,11-23.4,17.4-38.4,19.5c-15.4,2.2-30.4,1.1-44.5-5.9c-20.9-10.4-35.1-26.6-41.6-49.3
		c-1.6-5.5-2.2-11.2-2.4-16.9c-0.4-11.8,1.4-23.3,6.6-33.9c11.6-23.3,29.9-38.3,55.7-43.3c3.8-0.7,7.8-0.9,11.7-1.3
		c0.4,0,0.8-0.2,1.1-0.2C330,12.2,331.4,12.2,332.9,12.2z"/>
	<path class="st0" d="M111.4,12.2c0.8,0.1,1.6,0.2,2.3,0.3c12.9,0.5,24.2,4.9,33.7,13.6c0.4,0.3,1,0.6,0.4,1.3
		c-3.4,4.6-6.8,9.3-10.3,14c-0.3-0.2-0.5-0.4-0.7-0.6c-7.1-7.6-16-11.6-26.3-12.5c-12.2-1.1-19.6,7.2-22.2,14.3
		c-2.9,7.8-2.1,15.3,3.6,21.7c3.1,3.6,7.3,5.7,11.6,7.4c8.2,3.3,16.4,6.6,24.4,10.1c4.9,2.1,9.5,4.9,13.8,8.1
		c6.9,5,11.3,11.8,12.6,20.2c1.8,11.2,0.3,21.9-5.9,31.6c-7.4,11.5-17.9,18.5-31.3,21.1c-15.6,3-29.8-0.3-42.8-9.3
		c-4-2.8-7.9-5.8-11.8-8.7c-0.3-0.2-0.5-0.5-0.9-0.7c3.6-5,7.2-10,10.9-15c2.1,1.6,4.1,3.1,6.2,4.6c4.9,3.5,9.7,7.2,15.4,9.5
		c8.2,3.2,16.5,3.9,24.8,0.8c10.8-4,17.4-14.7,16.1-26c-0.7-6.1-4-10.8-8.8-14.4c-4-3-8.5-5-13.1-6.9c-6.3-2.6-12.6-4.9-18.9-7.4
		c-5.5-2.2-10.7-5-15.3-8.8c-5.8-4.8-9.5-11-11-18.3c-1.7-8.2-1.7-16.5,1.3-24.4c4.2-11.2,12.5-18.2,23.4-22.4
		c4.3-1.7,8.7-2.5,13.3-2.7c0.5,0,1-0.2,1.5-0.3C108.8,12.2,110.1,12.2,111.4,12.2z"/>
	<path class="st0" d="M169.4,15.6c0.6,0,1.1-0.1,1.6-0.1c25.2,0,50.5,0,75.7,0c1.6,0,1.6,0,1.6,1.6c0,4.5,0,9,0,13.6
		c0,1.2-0.4,1.5-1.5,1.5c-18.9,0-37.8,0-56.8,0c-1.6,0-1.7,0-1.7,1.6c0,12.8,0,25.6,0,38.4c0,1.6,0,1.6,1.7,1.6
		c18.2,0,36.3,0,54.5,0c0.6,0,1.1,0,1.8,0c0,5.5,0,10.9,0,16.5c-19.2,0-38.5,0-57.8,0c0,18.1,0,36,0,54.1c19.9,0,39.8,0,59.7,0
		c0,5.6,0,11,0,16.5c-0.5,0-1,0-1.5,0c-25.2,0-50.5,0-75.7,0c-1.6,0-1.6,0-1.6-1.6c0-47.4,0-94.8,0-142.2
		C169.4,16.6,169.4,16.1,169.4,15.6z"/>
	<path class="st0" d="M375.9,204c1-2.7,2-5.4,2.8-8.1c0.3-0.9,0.7-1.3,1.7-1.2c0.9,0.1,1.8,0,2.8,0c-0.7,2-1.4,3.9-2.1,5.8
		c-0.9,2.5-1.8,5-2.7,7.5c-0.1,0.4-0.3,0.8-0.2,1.1c1.4,3.8,2.8,7.6,4.4,11.8c0.3-0.7,0.5-1.2,0.7-1.6c2.8-7.8,5.6-15.7,8.4-23.6
		c0.3-1,0.7-1.3,1.8-1.3c8.4,0.1,16.7,0,25.1,0c0.4,0,0.9,0,1.4,0c0,1.4,0,2.8,0,4.2c-3.3,0-6.5,0-9.8,0c0,9.6,0,19.1,0,28.7
		c-1.4,0-2.6,0-4.1,0c0-9.5,0-19,0-28.7c-3.4,0-6.5,0-9.8,0c-0.1-0.7-0.1-1.3-0.2-1.8c-0.1,0-0.2,0-0.2-0.1
		c-0.2,0.4-0.3,0.7-0.5,1.1c-3.5,9.5-7,18.9-10.5,28.4c-0.3,0.9-0.8,1.3-1.7,1.1c-0.4-0.1-0.7-0.1-1.1,0c-0.8,0.1-1.2-0.2-1.5-1
		c-1.4-3.9-2.9-7.8-4.3-11.7c-0.1-0.4-0.3-0.8-0.6-1.4c-0.4,0.9-0.6,1.6-0.9,2.2c-1.4,3.6-2.7,7.2-4.1,10.9c-0.3,0.7-0.6,1-1.4,1
		c-2.4,0-2.4,0-3.2-2.3c-3.6-9.8-7.2-19.5-10.8-29.3c-0.2-0.4-0.3-0.9-0.5-1.4c1.3,0,2.5,0,3.7,0c0.8,0,0.9,0.6,1,1.1
		c2.8,7.9,5.7,15.8,8.5,23.7c0.2,0.5,0.4,1,0.6,1.7c0.3-0.6,0.4-0.9,0.6-1.3c1.2-3.2,2.4-6.4,3.5-9.7c0.2-0.6,0.2-1.4,0-2
		c-1.3-3.9-2.8-7.8-4.2-11.7c-0.1-0.4-0.3-0.8-0.5-1.4c1.3,0,2.5-0.1,3.6,0c0.3,0,0.6,0.5,0.8,0.9c0.8,2.3,1.6,4.7,2.4,7
		c0.2,0.4,0.3,0.9,0.5,1.3C375.7,204,375.8,204,375.9,204z"/>
	<path class="st0" d="M218.5,227.4c-0.1,0-0.1,0.1-0.2,0.1c-1.3,0-2.9,0.5-3.9-0.1c-0.9-0.6-1.1-2.2-1.6-3.4
		c-0.7-1.8-1.3-3.5-1.9-5.3c-0.2-0.7-0.6-1-1.4-1c-3.1,0-6.2,0.1-9.4,0c-0.8,0-1.2,0.3-1.5,1c-0.9,2.7-1.9,5.3-2.9,8
		c-0.1,0.3-0.2,0.5-0.3,0.8c-2.8,0-5.5,0-8.3,0c-0.4,0-0.8-0.5-1.1-0.9c-1.9-3.2-3.7-6.5-5.5-9.7c-0.4-0.8-0.9-1.1-1.8-1
		c-1.5,0.1-3,0.1-4.6,0c-1,0-1.3,0.3-1.3,1.3c0.1,3,0,6,0,9c0,0.4,0,0.9-0.1,1.3c-1.4,0-2.6,0-3.9,0c0-11,0-21.9,0-32.9
		c0.5,0,0.9,0,1.3,0c3.4,0,6.8,0.1,10.2,0c3.8-0.1,6.4,1.7,8.2,4.8c2.5,4.4,1.9,10.3-1.4,13.7c-0.8,0.8-1.8,1.4-2.8,2.2
		c2.2,3.8,4.3,7.7,6.6,11.9c0.3-0.7,0.5-1.1,0.6-1.5c3.7-10,7.4-20,11-30c0.4-1.2,1.1-1.1,2-1.1c0.9,0,1.7-0.2,2.1,1.1
		c3.7,10.3,7.5,20.5,11.2,30.7C218.3,226.6,218.4,227,218.5,227.4z M173,205.1c0,1.8,0,3.6,0,5.4c0,0.8,0.2,1.2,1.1,1.2
		c2.4,0,4.7,0,7.1,0c1.4,0,2.5-0.6,3.3-1.6c2.1-2.6,2.2-6.9,0.1-9.5c-1-1.2-2.2-1.9-3.8-1.9c-2.2,0-4.4,0.1-6.6,0
		c-1,0-1.2,0.3-1.2,1.2C173.1,201.6,173,203.4,173,205.1z M209.4,213.6c-1.5-4.2-2.9-8.2-4.4-12.3c-1.7,3.9-3.1,7.8-4.6,11.7
		c-0.1,0.1,0,0.3,0,0.5C203.3,213.6,206.2,213.6,209.4,213.6z"/>
	<path class="st0" d="M304.2,194.5c4.3,0,8.4,0,12.6,0c0.3,0,0.6,0,0.8,0.1c2.7,0.5,4.6,2.1,6,4.3c2.8,4.6,2.2,11-1.6,14.5
		c-0.7,0.6-1.5,1.1-2.4,1.8c1.1,2,2.2,4,3.4,6.1c1.1,2,2.2,4,3.5,6.2c-1.5,0-2.9,0.1-4.2,0c-0.4,0-0.8-0.5-1-0.8
		c-1.8-3.2-3.7-6.4-5.5-9.7c-0.5-0.9-1-1.2-2-1.1c-1.4,0.1-2.7,0-4.1,0c-1.7,0-1.7,0-1.7,1.6c0,2.9,0,5.8,0,8.6c0,0.4,0,0.9,0,1.4
		c-1.4,0-2.6,0-4,0C304.2,216.4,304.2,205.6,304.2,194.5z M312.8,198.7c-1.2,0-2.3,0-3.5,0c-0.9,0-1.2,0.2-1.2,1.1
		c0,3.6,0,7.2,0,10.8c0,0.8,0.3,1.1,1.1,1.1c2.4,0,4.7,0,7.1,0c1.5,0,2.6-0.7,3.5-1.8c1.5-2,1.8-4.3,1.2-6.7
		c-0.8-3.1-2.6-4.4-5.8-4.4C314.4,198.7,313.6,198.7,312.8,198.7z"/>
	<path class="st0" d="M296,214.3c-1.8,0-3.4,0-5,0c-0.8,0-1.1-0.3-1.1-1.1c0.1-0.8,0-1.7,0-2.6c3.3,0,6.4,0,9.7,0
		c0,5.5,0,11.1,0,16.8c-1.2,0-2.3,0-3.6,0c0-0.9,0-1.9,0-3.1c-0.5,0.3-0.7,0.4-0.9,0.6c-5.1,4.1-11.3,3.7-15.8-1
		c-6.6-6.8-6.8-18.6-0.4-25.6c5.9-6.4,16.1-5,19.9,2.8c0.4,0.7,0.4,1.2-0.4,1.7c-0.8,0.5-1.5,1.1-2.4,1.8c-0.3-0.6-0.5-1-0.8-1.5
		c-3-5.6-10.1-6.2-14-1c-3.6,4.9-3.8,12.5-0.2,17.4c4,5.6,10.5,5.4,14.8-0.4c0.1-0.2,0.2-0.4,0.2-0.7C296,217.1,296,215.8,296,214.3
		z"/>
	<path class="st0" d="M355.4,211.1c-0.2,4.9-1.6,9.5-5.4,13c-5.4,5.1-12.7,4.7-17.6-0.8c-6.1-6.8-5.9-18.7,0.5-25.2
		c5.7-5.8,14.1-5,18.9,1.7C354.2,203.2,355.2,206.9,355.4,211.1z M351.2,211.8c0-4.5-1.2-7.9-3.4-10.4c-3.2-3.6-8.1-3.9-11.5-0.7
		c-5.5,5.1-5.5,15.5,0,20.6c3.2,3,7.7,3,10.9-0.1C350,218.4,351,214.9,351.2,211.8z"/>
	<path class="st0" d="M446.1,227.4c-1.3,0-2.5,0-3.9,0c0-0.5-0.1-0.9-0.1-1.4c0-4,0-7.9,0-11.9c0-1.1-0.3-1.5-1.5-1.5
		c-4.1,0.1-8.2,0.1-12.2,0c-1.1,0-1.4,0.3-1.3,1.4c0.1,4,0,8,0,12c0,0.4,0,0.9,0,1.4c-1.4,0-2.7,0-4.1,0c0-10.9,0-21.8,0-32.8
		c1.3,0,2.6,0,4,0c0,0.4,0.1,0.9,0.1,1.4c0,3.8,0,7.6,0,11.4c0,0.9,0.3,1.3,1.2,1.2c4.2,0,8.4,0,12.6,0c1,0,1.2-0.4,1.2-1.3
		c0-3.8,0-7.5,0-11.3c0-0.5,0-0.9,0-1.5c1.4,0,2.7,0,4,0C446.1,205.5,446.1,216.4,446.1,227.4z"/>
	<path class="st0" d="M145.1,194.5c6.5,0,13,0,19.6,0c0,1.3,0,2.7,0,4.1c-5.1,0-10.2,0-15.4,0c0,3.3,0,6.6,0,9.9c4.5,0,8.9,0,13.4,0
		c0,1.4,0,2.6,0,4c-0.4,0-0.9,0.1-1.4,0.1c-3.6,0-7.2,0-10.8,0c-1,0-1.3,0.2-1.3,1.3c0.1,3.1,0,6.1,0,9.3c5.3,0,10.5,0,15.8,0
		c0,1.4,0,2.7,0,4.1c-6.6,0-13.2,0-19.9,0C145.1,216.5,145.1,205.6,145.1,194.5z"/>
	<path class="st0" d="M259.7,208.5c0,1.3,0.1,2.4,0,3.5c0,0.2-0.7,0.6-1,0.6c-3.6,0-7.2,0-10.8,0c-0.5,0-0.9,0-1.5,0
		c0,3.6,0,7,0,10.6c5.2,0,10.4,0,15.7,0c0,1.4,0,2.8,0,4.2c-6.6,0-13.1,0-19.8,0c0-10.9,0-21.9,0-32.9c6.5,0,12.9,0,19.5,0
		c0,1.4,0,2.7,0,4.1c-5.2,0-10.2,0-15.4,0c0,3.3,0,6.5,0,9.9C250.7,208.5,255.1,208.5,259.7,208.5z"/>
	<path class="st0" d="M98.2,194.5c6.5,0,12.9,0,19.4,0c0,1.3,0,2.7,0,4.1c-5.1,0-10.2,0-15.5,0c0,1.3,0,2.4,0,3.6
		c0,1.6,0.1,3.3,0,4.9c-0.1,1.1,0.3,1.5,1.4,1.5c3.6-0.1,7.1,0,10.7,0c0.4,0,0.9,0,1.4,0c0,1.3,0,2.6,0,4c-0.5,0-1,0.1-1.4,0.1
		c-3.6,0-7.2,0-10.8,0c-1,0-1.3,0.3-1.3,1.3c0.1,3.1,0,6.1,0,9.3c5.3,0,10.5,0,15.8,0c0,1.4,0,2.8,0,4.2c-6.6,0-13.1,0-19.7,0
		C98.2,216.4,98.2,205.5,98.2,194.5z"/>
	<path class="st0" d="M26.7,194.5c1.2,0,2.2,0,3.2,0c4,10.9,8,21.8,12.1,33c-1.5,0-2.8,0.1-4.1,0c-0.3,0-0.6-0.6-0.7-0.9
		c-1-2.6-2-5.2-2.9-7.9c-0.3-0.8-0.7-1-1.5-1c-3.1,0-6.2,0-9.4,0c-0.8,0-1.1,0.2-1.4,1c-0.9,2.7-1.9,5.3-2.8,8
		c-0.2,0.7-0.6,0.9-1.3,0.9c-1.1-0.1-2.2,0-3.5,0C18.7,216.4,22.7,205.5,26.7,194.5z M23.7,213.6c3.1,0,6,0,9.1,0
		c-1.5-4.2-2.9-8.2-4.3-12.2c-0.1,0-0.2,0-0.3,0C26.7,205.4,25.3,209.5,23.7,213.6z"/>
	<path class="st0" d="M91,204.5c-0.2-0.5-0.4-0.9-0.6-1.2c-2.6-5.4-9.4-6.4-13.5-2c-4.7,5.1-4.5,14.7,0.4,19.6
		c4.2,4.2,10.8,3,13.4-2.3c0.2-0.4,0.4-0.8,0.6-1.3c1.2,0.7,2.2,1.3,3.4,2c-0.5,2-1.6,3.6-3.1,4.9c-5.7,5.2-13.4,4.5-18.3-1.5
		c-5.3-6.5-5.5-16.7-0.4-23.4c4.3-5.6,12.3-6.8,17.3-2.6c1.4,1.2,2.4,3,3.5,4.6c0.4,0.5,0.2,0.9-0.3,1.3
		C92.8,203.2,92,203.8,91,204.5z"/>
	<path class="st0" d="M64.6,217.3c0.9,0.6,1.7,1.1,2.6,1.5c0.8,0.4,0.8,0.8,0.5,1.5c-2.4,6-11.8,10.5-18.8,4.6
		c-7.9-6.5-8.5-20.1-1.1-27.2c6.1-5.8,15.7-4.2,19.3,3.2c0.4,0.8,0.4,1.4-0.5,1.8c-0.8,0.4-1.5,1-2.4,1.6c-0.2-0.3-0.3-0.6-0.5-0.8
		c-2.8-5.9-9.4-6.9-13.8-2.2c-4.7,5-4.2,15.2,0.9,19.8c4.1,3.6,9.9,2.7,12.7-2C64,218.7,64.3,218.1,64.6,217.3z"/>
	<path class="st0" d="M215.4,194.5c8,0,15.8,0,23.8,0c0,1.4,0,2.7,0,4.1c-3.2,0-6.4,0-9.7,0c0,9.7,0,19.2,0,28.7c-1.4,0-2.8,0-4.2,0
		c0-9.5,0-19,0-28.7c-3.3,0-6.5,0-9.8,0C215.4,197.2,215.4,195.9,215.4,194.5z"/>
	<path class="st0" d="M126.1,223.2c5.4,0,10.6,0,16,0c0,1.4,0,2.8,0,4.2c-6.7,0-13.3,0-20.1,0c0-10.9,0-21.8,0-32.8
		c1.3,0,2.7,0,4.1,0C126.1,204.1,126.1,213.6,126.1,223.2z"/>
</g>
<line class="st1" x1="31.8" y1="181.3" x2="428.8" y2="181.3"/>
</svg>
