<svg width="247" height="108" viewBox="0 0 247 108" fill="none" xmlns="http://www.w3.org/2000/svg">
<path d="M135.159 43.9217L135.522 43.5871V26.4477C134.774 26.4929 134.021 26.8365 134.021 26.8365C134.021 26.8365 129.235 29.9741 128.411 33.4418C127.586 36.9095 130.311 38.6863 130.311 38.6863C128.823 38.7631 129.074 40.0968 129.074 40.0968C129.074 40.0968 127.86 40.0742 127.291 40.0968H119.086C116.608 40.8021 118.176 43.9804 118.176 43.9804H119.995C119.216 44.2472 116.061 45.4543 113.632 48.3116L112.279 58.2399H100.982L100.803 58.032L103.389 54.5824L105.114 52.2812L104.222 51.5171L107.341 38.3743L108.39 36.8281C108.39 36.8281 107.619 35.8877 106.794 36.5704L106.655 37.9403L103.142 50.5903L102.291 49.8624L101.265 50.5541L97.9264 49.9483L104.092 41.0101L103.492 40.4495L104.263 39.8437L105.974 37.9448V36.7377L105.947 36.7151L106.799 36.5749L108.394 34.3867L108.139 33.5096L109.012 33.2338L111.715 33.4734L112.906 34.3551C112.906 34.3551 113.722 34.6128 113.632 33.5322L108.39 29.7164C108.39 29.7164 109.653 29.6034 110.039 29.2146C110.424 28.8258 110.039 27.917 110.039 27.917L108.39 28.6947L107.256 28.8891L104.021 26.5336C103.725 26.3301 102.941 26.3844 103.187 27.162L104.451 28.0979L104.908 29.3005L102.161 29.7752C100.064 29.9922 99.1631 31.0728 99.1631 31.0728L95.8248 38.415C95.1347 38.6049 94.4267 39.4187 94.0906 39.8391H93.0645L100.96 15.1495C101.157 15.3575 101.565 15.9271 101.87 16.3702L100.467 21.5694C100.467 21.5694 101.646 22.6048 102.053 22.0894C102.461 21.5694 104.065 14.2769 104.065 14.2769C104.065 14.2769 103.926 13.1376 102.636 13.54L102.331 14.6612L101.22 14.3402L102.372 10.7324C102.372 10.7324 104.083 4.59729 111.706 3.73376H135.531V0.410767C125.709 0.433372 113.31 0.582568 113.31 0.582568C113.31 0.582568 103.743 0.627778 100.319 7.97002L100.225 8.25485C100.225 8.25485 99.1631 7.06128 97.3214 6.63178C95.4797 6.19775 93.638 7.44557 93.638 7.44557V12.9387C93.638 12.9387 93.8531 14.0192 95.0944 14.2362C96.0847 14.408 97.7247 14.0599 98.3521 13.9107L89.5334 40.5399L88.7627 40.6258L86.4325 48.3252L83.6184 47.3215V17.297H85.1868V6.02595H79.9843V0.410767H73.4061V47.2944H72.5727V40.6032H69.8751V76.0847H16.8555L29.0977 77.8343H72.5682V62.3722H73.4017V79.9185H75.333C75.4853 80.1717 75.6422 80.4204 75.808 80.66L76.1754 80.4113C76.274 80.5515 76.3726 80.6916 76.4756 80.8318L76.1082 81.0805C76.5249 81.6366 76.982 82.1655 77.4749 82.6493L77.7886 82.3328C77.9096 82.4549 78.0351 82.5724 78.165 82.69L77.8513 83.0064C78.3577 83.4721 78.8999 83.8971 79.4735 84.2814L79.7199 83.9107C79.8633 84.0056 80.0067 84.1005 80.1546 84.1864L79.9081 84.5572C80.4862 84.9143 81.0956 85.2263 81.7274 85.493L81.8977 85.0816C82.0545 85.1494 82.2159 85.2127 82.3772 85.2715L82.2069 85.6829C82.8387 85.9225 83.493 86.1124 84.1606 86.2526L84.2458 85.814C84.4116 85.8502 84.5818 85.8819 84.7521 85.909L84.667 86.3475C85.3257 86.4606 86.0023 86.5238 86.6879 86.5374V86.0898C86.7731 86.0898 86.8582 86.0898 86.9434 86.0898C87.0285 86.0898 87.1136 86.0898 87.1988 86.0898V86.5374C87.8844 86.5238 88.561 86.4606 89.2197 86.3475L89.1346 85.909C89.3049 85.8819 89.4707 85.8502 89.6409 85.814L89.7261 86.2526C90.3982 86.1124 91.0525 85.918 91.6798 85.6829L91.5095 85.2715C91.6708 85.2127 91.8277 85.1494 91.989 85.0816L92.1593 85.493C92.7911 85.2263 93.4005 84.9143 93.9786 84.5572L93.7321 84.1864C93.88 84.096 94.0234 84.0056 94.1668 83.9107L94.4132 84.2814C94.9868 83.8971 95.529 83.4721 96.0354 83.0064L95.7217 82.69C95.8472 82.5724 95.9726 82.4549 96.0981 82.3328L96.4118 82.6493C96.9047 82.161 97.3618 81.6366 97.7785 81.0805L97.411 80.8318C97.5141 80.6916 97.6127 80.556 97.7113 80.4113L98.0787 80.66C98.4731 80.0858 98.8271 79.4755 99.1363 78.838L98.7285 78.6662C98.8047 78.5125 98.8764 78.3542 98.9436 78.196L99.3513 78.3678C99.4499 78.1418 99.544 77.9112 99.6292 77.6761H104.339V78.6255H135.527V43.9172H135.164L135.159 43.9217ZM109.066 31.5249L111.15 33.0666L109.066 32.8495V31.5249ZM80.5579 60.826C80.3607 60.93 80.168 61.043 79.9798 61.1606V56.4496L80.5579 56.4586V60.826ZM80.5579 49.7493L80.3159 50.4411L80.5579 50.527V53.642L79.9798 53.7415V49.3379L80.5579 49.5459V49.7448V49.7493ZM80.5579 47.2085L79.9798 47.0005V17.297H80.5579V47.204V47.2085ZM80.5579 11.6637V16.0989H79.9798V7.61737L83.7663 7.5812V16.0673L82.4758 16.0808V11.6637H80.5579ZM83.2644 53.1763L82.4758 53.312V51.2142L83.2644 51.4945V53.1763ZM83.2644 47.1904L82.4758 46.9101V17.297H83.2644V47.1904ZM85.0479 52.8689L83.6095 53.1176V51.6211L85.2495 52.2043L85.0479 52.8689ZM107.059 30.0374L105.965 30.4127L105.835 30.1595L106.965 29.9651L107.063 30.0374H107.059ZM105.844 29.1377L105.347 29.2236L104.966 28.4867L105.844 29.1377ZM96.7837 38.7134L99.7546 31.7238C100.355 31.0321 101.722 30.8603 101.722 30.8603L105.257 30.2544L105.468 30.806V31.8413L104.666 32.0357L103.317 34.0431L103.393 34.7574L100.906 32.845L99.3648 33.7085L96.7792 38.7134H96.7837Z" fill="#1866A3"/>
<path d="M138.906 0.410767V20.7647L229.558 55.152L138.906 0.410767Z" fill="black"/>
<path d="M138.906 27.0442L229.558 57.5886V68.4437L138.906 51.3902V27.0442Z" fill="black"/>
<path d="M229.561 71.7534L138.609 57.0056V79.0459L229.561 79.3172V71.7534Z" fill="black"/>
<path d="M29.5548 89.5166L24.0207 106.963H17.7697L14.978 97.641L12.0385 106.963H5.78741L0.257812 89.5166H6.2624L9.27814 99.4359L12.4642 89.5166H17.8235L20.8392 99.5624L24.0252 89.5166H29.5593H29.5548Z" fill="#1866A3"/>
<path d="M43.0438 99.6391V106.968H37.8548V105.173C37.214 106.543 35.9279 107.216 34.028 107.216C30.7165 107.216 29.0137 105.322 29.0137 102.98C29.0137 100.34 30.9898 98.866 35.1885 98.866H37.438C37.2633 97.8171 36.4746 97.27 34.8928 97.27C33.6829 97.27 32.3252 97.6679 31.4334 98.3415L29.6545 94.6297C31.2363 93.6305 33.6336 93.0835 35.7307 93.0835C40.3731 93.0835 43.0438 95.0999 43.0438 99.6391ZM37.4604 102.528V101.583H36.0758C34.8883 101.583 34.373 101.981 34.373 102.731C34.373 103.355 34.8659 103.83 35.7083 103.83C36.4746 103.83 37.1647 103.432 37.4604 102.533V102.528Z" fill="#1866A3"/>
<path d="M55.145 93.0835V98.0703C54.6521 97.9934 54.3071 97.9708 53.9083 97.9708C52.2279 97.9708 51.0404 98.7439 51.0404 100.914V106.972H45.457V93.3367H50.7671V94.806C51.7574 93.6577 53.263 93.088 55.1405 93.088L55.145 93.0835Z" fill="#1866A3"/>
<path d="M70.9052 101.457H61.5174C61.9118 102.506 62.8528 103.053 64.2329 103.053C65.4697 103.053 66.1598 102.727 67.0515 102.054L69.9687 105.02C68.6602 106.466 66.7558 107.212 64.0627 107.212C59.0977 107.212 55.8848 104.197 55.8848 100.132C55.8848 96.0678 59.1694 93.0793 63.5429 93.0793C67.5444 93.0793 70.9769 95.5207 70.9769 100.132C70.9769 100.53 70.9276 101.055 70.9007 101.452L70.9052 101.457ZM61.4188 98.7397H65.7655C65.5414 97.5914 64.7258 96.9223 63.5921 96.9223C62.4584 96.9223 61.6384 97.5959 61.4188 98.7397Z" fill="#1866A3"/>
<path d="M87.6504 99.1875V106.964H82.067V100.16C82.067 98.4641 81.4262 97.8176 80.4135 97.8176C79.2753 97.8176 78.3119 98.541 78.3119 100.557V106.964H72.7285V88.468H78.3119V94.4268C79.3515 93.5316 80.6599 93.0795 82.1163 93.0795C85.2306 93.0795 87.6504 94.897 87.6504 99.1875Z" fill="#1866A3"/>
<path d="M89.6016 100.136C89.6016 95.9996 92.8862 93.0835 97.4568 93.0835C102.027 93.0835 105.312 95.9996 105.312 100.136C105.312 104.273 102.05 107.216 97.4568 107.216C92.8638 107.216 89.6016 104.273 89.6016 100.136ZM99.657 100.136C99.657 98.3686 98.6936 97.4689 97.4568 97.4689C96.2201 97.4689 95.2566 98.3686 95.2566 100.136C95.2566 101.904 96.2201 102.826 97.4568 102.826C98.6936 102.826 99.657 101.904 99.657 100.136Z" fill="#1866A3"/>
<path d="M121.839 93.3326V106.968H116.529V105.671C115.516 106.72 114.158 107.217 112.698 107.217C109.462 107.217 107.016 105.295 107.016 100.86V93.3326H112.599V99.8882C112.599 101.832 113.267 102.479 114.351 102.479C115.315 102.479 116.256 101.755 116.256 99.739V93.3326H121.839Z" fill="#1866A3"/>
<path d="M123.473 105.869L125.005 102.157C126.291 102.93 128.119 103.378 129.724 103.378C131.081 103.378 131.453 103.129 131.453 102.731C131.453 101.334 123.67 103.206 123.67 97.7447C123.67 95.1768 126.04 93.0835 130.589 93.0835C132.565 93.0835 134.666 93.4588 136.096 94.2047L134.563 97.9165C133.179 97.1434 131.798 96.9174 130.66 96.9174C129.226 96.9174 128.832 97.2429 128.832 97.5639C128.832 98.9835 136.589 97.1389 136.589 102.6C136.589 105.069 134.29 107.212 129.598 107.212C127.277 107.212 124.857 106.665 123.473 105.865V105.869Z" fill="#1866A3"/>
<path d="M152.568 101.457H143.18C143.574 102.506 144.515 103.053 145.896 103.053C147.132 103.053 147.822 102.727 148.71 102.054L151.627 105.02C150.318 106.466 148.414 107.212 145.721 107.212C140.756 107.212 137.543 104.197 137.543 100.132C137.543 96.0678 140.828 93.0793 145.201 93.0793C149.203 93.0793 152.635 95.5207 152.635 100.132C152.635 100.53 152.586 101.055 152.559 101.452L152.568 101.457ZM143.082 98.7397H147.428C147.204 97.5914 146.389 96.9223 145.255 96.9223C144.121 96.9223 143.301 97.5959 143.082 98.7397Z" fill="#1866A3"/>
<path d="M179.026 102.153C179.026 105.196 176.481 106.963 171.713 106.963H161.98V89.5166H171.22C175.988 89.5166 178.211 91.4381 178.211 94.0784C178.211 95.6969 177.395 97.0442 175.813 97.8399C177.839 98.5859 179.026 100.082 179.026 102.153ZM167.712 93.6308V96.2214H170.427C171.736 96.2214 172.332 95.7738 172.332 94.9238C172.332 94.0739 171.74 93.6263 170.427 93.6263H167.712V93.6308ZM173.147 101.484C173.147 100.589 172.506 100.114 171.22 100.114H167.712V102.854H171.22C172.506 102.854 173.147 102.379 173.147 101.484Z" fill="black"/>
<path d="M194.263 99.6391V106.968H189.074V105.173C188.433 106.543 187.147 107.216 185.243 107.216C181.931 107.216 180.229 105.322 180.229 102.98C180.229 100.34 182.205 98.866 186.403 98.866H188.653C188.478 97.8171 187.689 97.27 186.108 97.27C184.898 97.27 183.54 97.6679 182.648 98.3415L180.869 94.6297C182.451 93.6305 184.848 93.0835 186.946 93.0835C191.588 93.0835 194.259 95.0999 194.259 99.6391H194.263ZM188.68 102.528V101.583H187.295C186.108 101.583 185.592 101.981 185.592 102.731C185.592 103.355 186.085 103.83 186.928 103.83C187.694 103.83 188.384 103.432 188.68 102.533V102.528Z" fill="black"/>
<path d="M195.84 105.869L197.372 102.157C198.658 102.93 200.487 103.378 202.091 103.378C203.449 103.378 203.821 103.129 203.821 102.731C203.821 101.334 196.037 103.206 196.037 97.7447C196.037 95.1768 198.407 93.0835 202.956 93.0835C204.932 93.0835 207.033 93.4588 208.463 94.2047L206.93 97.9165C205.546 97.1434 204.166 96.9174 203.027 96.9174C201.593 96.9174 201.199 97.2429 201.199 97.5639C201.199 98.9835 208.956 97.1389 208.956 102.6C208.956 105.069 206.657 107.212 201.965 107.212C199.644 107.212 197.224 106.665 195.84 105.865V105.869Z" fill="black"/>
<path d="M210.07 89.3675C210.07 87.7489 211.379 86.5011 213.431 86.5011C215.483 86.5011 216.792 87.6495 216.792 89.268C216.792 90.986 215.483 92.2338 213.431 92.2338C211.379 92.2338 210.07 90.986 210.07 89.3675ZM210.639 93.3325H216.223V106.968H210.639V93.3325Z" fill="black"/>
<path d="M217.973 100.136C217.973 95.9996 221.284 93.0835 225.953 93.0835C229.238 93.0835 231.707 94.6026 232.599 97.1208L228.275 99.2638C227.705 97.9934 226.89 97.4689 225.926 97.4689C224.667 97.4689 223.628 98.3686 223.628 100.136C223.628 101.904 224.667 102.826 225.926 102.826C226.89 102.826 227.705 102.302 228.275 101.032L232.599 103.175C231.707 105.693 229.238 107.212 225.953 107.212C221.284 107.212 217.973 104.296 217.973 100.132V100.136Z" fill="black"/>
<path d="M233.043 105.869L234.575 102.157C235.862 102.93 237.69 103.378 239.294 103.378C240.652 103.378 241.024 103.129 241.024 102.731C241.024 101.334 233.24 103.206 233.24 97.7447C233.24 95.1768 235.611 93.0835 240.159 93.0835C242.135 93.0835 244.237 93.4588 245.666 94.2047L244.134 97.9165C242.749 97.1434 241.369 96.9174 240.231 96.9174C238.797 96.9174 238.402 97.2429 238.402 97.5639C238.402 98.9835 246.159 97.1389 246.159 102.6C246.159 105.069 243.86 107.212 239.169 107.212C236.847 107.212 234.428 106.665 233.043 105.865V105.869Z" fill="black"/>
</svg>
