<svg id="Group_36" data-name="Group 36" xmlns="http://www.w3.org/2000/svg" xmlns:xlink="http://www.w3.org/1999/xlink" width="191" height="41.355" viewBox="0 0 191 41.355">
  <defs>
    <clipPath id="clip-path">
      <rect id="Rectangle_3" data-name="Rectangle 3" width="191" height="41" fill="none"/>
    </clipPath>
  </defs>
  <path id="Path_59" data-name="Path 59" d="M0,59.246V92.14H6.366V83.331H32.529V77.008H6.366V65.569H32.529V59.246Z" transform="translate(0 -50.784)" fill="#1b242c"/>
  <g id="Group_2" data-name="Group 2">
    <g id="Group_1" data-name="Group 1" clip-path="url(#clip-path)">
      <path id="Path_60" data-name="Path 60" d="M41.421,19.209l-2.631,1.5,2.631,1.507V35.429a6.009,6.009,0,0,1-6.032,5.991H8.881V35.1H35.06V23.874H8.881V17.551H35.06V6.322H0V0H35.388a6.013,6.013,0,0,1,6.032,6Z" fill="#1c63af"/>
      <path id="Path_61" data-name="Path 61" d="M338.582,3.374c3.124,0,4.291,1.43,4.291,3.62V9.388c0,1.518-.263,2.686-1.4,3.3,1.138.5,1.4,1.518,1.4,3.007v2.8c0,2.189-1.168,3.62-4.291,3.62H330V3.374Zm-.73,4c0-.438-.234-.642-.73-.642h-2.1v4.32h2.1c.5,0,.73-.2.73-.642Zm0,7.678c0-.438-.234-.642-.73-.642h-2.1v4.35h2.1c.5,0,.73-.2.73-.642Z" transform="translate(-282.866 -2.892)" fill="#1b242c"/>
      <rect id="Rectangle_1" data-name="Rectangle 1" width="5.109" height="18.742" transform="translate(62.197 0.482)" fill="#1b242c"/>
      <path id="Path_62" data-name="Path 62" d="M493.008,15.46h-.321v6.656h-5.109V3.374h8.67c3.124,0,4.291,1.43,4.291,3.62V11.84a3.133,3.133,0,0,1-2.511,3.415l3.445,6.86h-5.488Zm-.321-8.437v4.963H494.7c.5,0,.73-.2.73-.642V7.665c0-.438-.234-.642-.73-.642Z" transform="translate(-417.937 -2.892)" fill="#1b242c"/>
      <path id="Path_63" data-name="Path 63" d="M599.492,18.058l-2.306-7.794V22.116h-4.554V3.374h5.576l3.036,10.013L604.28,3.374h5.576V22.116H605.33V10.205L603,18.058Z" transform="translate(-507.986 -2.892)" fill="#1b242c"/>
      <rect id="Rectangle_2" data-name="Rectangle 2" width="5.109" height="18.742" transform="translate(104.204 0.482)" fill="#1b242c"/>
      <path id="Path_64" data-name="Path 64" d="M794.91,3.374V22.116h-4.379l-4.175-9.838v9.838h-4.671V3.374h4.379l4.174,10.013V3.374Z" transform="translate(-670.038 -2.892)" fill="#1b242c"/>
      <path id="Path_65" data-name="Path 65" d="M897.219,9.8V7.373c0-.438-.234-.642-.73-.642h-1.051c-.5,0-.73.2-.73.642V18.116c0,.438.233.642.73.642h1.051c.5,0,.73-.2.73-.642V14.993h-1.46v-3.24h6.568V18.5c0,2.189-1.168,3.62-4.291,3.62h-4.145c-3.124,0-4.291-1.43-4.291-3.62V6.994c0-2.189,1.168-3.62,4.291-3.62h4.145c3.124,0,4.291,1.43,4.291,3.62V9.8Z" transform="translate(-762.539 -2.892)" fill="#1b242c"/>
      <path id="Path_66" data-name="Path 66" d="M1006.739,3.374V22.116h-5.021V14.7H998.04v7.415h-5.021V3.374h5.021v7.678h3.678V3.374Z" transform="translate(-851.186 -2.892)" fill="#1b242c"/>
      <path id="Path_67" data-name="Path 67" d="M1107.382,19.314h-4.5l-.613,2.8h-5.021l4.817-18.742h6.218l4.817,18.742h-5.138Zm-.788-3.62-1.43-6.743-1.489,6.743Z" transform="translate(-940.532 -2.893)" fill="#1b242c"/>
      <path id="Path_68" data-name="Path 68" d="M1223.271,18.058l-2.306-7.794V22.116h-4.554V3.374h5.576l3.036,10.013,3.036-10.013h5.576V22.116h-4.525V10.205l-2.335,7.853Z" transform="translate(-1042.671 -2.892)" fill="#1b242c"/>
      <path id="Path_69" data-name="Path 69" d="M335.112,162.044V166.6h5.317v3.36h-5.317v7.187H330V158.392h11.248v3.652Z" transform="translate(-282.866 -135.769)" fill="#1b242c"/>
      <path id="Path_70" data-name="Path 70" d="M421.954,174.344h-4.5l-.613,2.8h-5.025l4.82-18.756h6.223l4.821,18.756h-5.142Zm-.789-3.623-1.432-6.749-1.49,6.749Z" transform="translate(-352.997 -135.77)" fill="#1b242c"/>
      <path id="Path_71" data-name="Path 71" d="M536.5,170.2c0-.438-.234-.643-.73-.643h-2.8c-3.038,0-3.944-1.49-3.944-3.681v-3.856c0-2.191,1.139-3.623,4.265-3.623h4c3.126,0,4.266,1.431,4.266,3.623v2.25h-5.113v-1.578c0-.438-.234-.643-.73-.643h-.847c-.5,0-.731.2-.731.643v2.775c0,.438.234.643.731.643h2.746c3.039,0,4,1.373,4,3.564v3.856c0,2.191-1.139,3.623-4.266,3.623h-3.973c-3.126,0-4.295-1.432-4.295-3.623v-2.25h5.113v1.578c0,.438.234.643.73.643h.847c.5,0,.73-.2.73-.643Z" transform="translate(-453.461 -135.77)" fill="#1b242c"/>
      <path id="Path_72" data-name="Path 72" d="M636.667,162.044h-3.623v15.1h-5.113v-15.1h-3.594v-3.652h12.329Z" transform="translate(-535.164 -135.769)" fill="#1b242c"/>
      <path id="Path_73" data-name="Path 73" d="M731.371,173.5v3.652H719.86V158.392h11.248v3.652h-6.135v3.827h5.288v3.652h-5.288V173.5Z" transform="translate(-617.043 -135.769)" fill="#1b242c"/>
      <path id="Path_74" data-name="Path 74" d="M824.934,158.392v18.756h-4.382l-4.178-9.846v9.846H811.7V158.392h4.382l4.178,10.021V158.392Z" transform="translate(-695.765 -135.769)" fill="#1b242c"/>
      <path id="Path_75" data-name="Path 75" d="M932.23,173.5v3.652H920.719V158.392h11.248v3.652h-6.135v3.827h5.288v3.652h-5.288V173.5Z" transform="translate(-789.214 -135.769)" fill="#1b242c"/>
      <path id="Path_76" data-name="Path 76" d="M1017.993,170.488h-.321v6.661h-5.113V158.393h8.677c3.126,0,4.295,1.431,4.295,3.623v4.85a3.135,3.135,0,0,1-2.512,3.418l3.447,6.866h-5.492Zm-.321-8.443v4.967h2.016c.5,0,.73-.2.73-.643v-3.681c0-.438-.234-.643-.73-.643Z" transform="translate(-867.936 -135.77)" fill="#1b242c"/>
    </g>
  </g>
</svg>
